<?xml version="1.0" encoding="UTF-8" standalone="no"?>
<svg
   width="32px"
   height="32px"
   viewBox="0 0 32 32"
   version="1.1"
   id="svg19808"
   sodipodi:docname="mastodon.svg"
   inkscape:version="1.3.2 (091e20e, 2023-11-25, custom)"
   xmlns:inkscape="http://www.inkscape.org/namespaces/inkscape"
   xmlns:sodipodi="http://sodipodi.sourceforge.net/DTD/sodipodi-0.dtd"
   xmlns="http://www.w3.org/2000/svg"
   xmlns:svg="http://www.w3.org/2000/svg">
  <defs
     id="defs19812" />
  <sodipodi:namedview
     id="namedview19810"
     pagecolor="#ffffff"
     bordercolor="#000000"
     borderopacity="0.25"
     inkscape:showpageshadow="2"
     inkscape:pageopacity="0.0"
     inkscape:pagecheckerboard="0"
     inkscape:deskcolor="#d1d1d1"
     showgrid="false"
     inkscape:zoom="6.5390625"
     inkscape:cx="-32.038232"
     inkscape:cy="16.592593"
     inkscape:window-width="1920"
     inkscape:window-height="1027"
     inkscape:window-x="-8"
     inkscape:window-y="-8"
     inkscape:window-maximized="1"
     inkscape:current-layer="svg19808" />
  <path
     d="m 16.435217,1.9667889 c -3.569715,0.014477 -7.1141126,0.4676905 -8.9583571,1.3180166 0,0 -3.9678993,1.8062782 -3.9678993,7.9588805 0,7.323796 -0.00531,16.521235 6.5739244,18.299887 2.51966,0.677188 4.686489,0.822941 6.428504,0.722486 3.161394,-0.178457 4.725009,-1.147205 4.725009,-1.147205 l -0.106185,-2.33596 c 0,0 -2.049125,0.722117 -4.586512,0.639388 -2.513751,-0.08864 -5.16199,-0.277285 -5.574449,-3.416224 -0.03782,-0.291911 -0.05658,-0.58748 -0.0554,-0.881756 5.326505,1.322467 9.868515,0.575994 11.11889,0.424721 3.491124,-0.424278 6.530216,-2.613376 6.917856,-4.614213 0.60746,-3.15312 0.556291,-7.691124 0.556291,-7.691124 0,-6.1526023 -3.960976,-7.9588805 -3.960976,-7.9588805 -1.9447,-0.9082357 -5.540987,-1.332494 -9.110702,-1.3180166 z m -3.82017,4.692693 c 1.223045,0.032796 2.431612,0.5799827 3.176165,1.7358116 l 0.720177,1.2233772 0.71787,-1.2233772 c 1.495013,-2.3246581 4.845758,-2.1796069 6.440046,-0.3808629 1.470195,1.711289 1.142589,2.8157824 1.142589,10.4610354 v 0.0024 h -2.892251 v -6.652405 c 0,-3.1141208 -3.970207,-3.2343905 -3.970207,0.431644 v 3.854794 h -2.873784 v -3.854794 c 0,-3.6660345 -3.967899,-3.5480731 -3.967899,-0.433952 v 6.652405 H 8.2085783 c 0,-7.651163 -0.3216976,-8.762746 1.1425891,-10.4610354 C 10.154219,7.1092414 11.392001,6.626778 12.615047,6.6595738 Z"
     id="path19806"
     style="fill:#69C89B;fill-opacity:1;stroke-width:1.18183" />
</svg>
