<svg width="32" height="25" viewBox="0 0 32 25" fill="none" xmlns="http://www.w3.org/2000/svg">
<g id="ds 1" clip-path="url(#clip0_18_7)">
<g id="Clip path group">
<mask id="mask0_18_7" style="mask-type:luminance" maskUnits="userSpaceOnUse" x="0" y="0" width="32" height="25">
<g id="clip0">
<path id="rect6" d="M32 0H0V25H32V0Z" fill="white"/>
</g>
</mask>
<g mask="url(#mask0_18_7)">
<g id="g4">
<path id="path2" d="M27.0894 2.22637C25.0498 1.28255 22.8626 0.58719 20.5759 0.188927C20.5342 0.18124 20.4926 0.200449 20.4712 0.238867C20.1899 0.743417 19.8783 1.40164 19.6601 1.91901C17.2005 1.54764 14.7536 1.54764 12.3444 1.91901C12.1262 1.39014 11.8033 0.743417 11.5208 0.238867C11.4993 0.201731 11.4577 0.182522 11.4161 0.188927C9.13055 0.585917 6.94341 1.28128 4.90258 2.22637C4.88491 2.23405 4.86977 2.24687 4.85972 2.26351C0.711189 8.51415 -0.425267 14.6111 0.13224 20.6326C0.134763 20.662 0.15116 20.6902 0.173864 20.7081C2.91095 22.7353 5.56228 23.966 8.16437 24.7817C8.20602 24.7945 8.25014 24.7791 8.27664 24.7446C8.89217 23.8968 9.44086 23.003 9.9113 22.063C9.93906 22.0079 9.91256 21.9426 9.85582 21.9208C8.98551 21.5879 8.1568 21.1819 7.35964 20.7209C7.29659 20.6838 7.29154 20.5928 7.34954 20.5493C7.5173 20.4225 7.68509 20.2906 7.84527 20.1574C7.87425 20.1331 7.91464 20.128 7.94871 20.1433C13.1857 22.5547 18.8554 22.5547 24.0306 20.1433C24.0647 20.1267 24.1051 20.1318 24.1353 20.1561C24.2955 20.2893 24.4633 20.4225 24.6323 20.5493C24.6903 20.5928 24.6865 20.6838 24.6235 20.7209C23.8263 21.1909 22.9976 21.5879 22.126 21.9196C22.0693 21.9413 22.044 22.0079 22.0718 22.063C22.5523 23.0016 23.101 23.8955 23.7052 24.7433C23.7304 24.7791 23.7758 24.7945 23.8175 24.7817C26.4322 23.966 29.0835 22.7353 31.8206 20.7081C31.8446 20.6902 31.8597 20.6633 31.8622 20.6338C32.5294 13.6724 30.7447 7.62542 27.131 2.26478C27.1221 2.24687 27.107 2.23405 27.0894 2.22637ZM10.6934 16.9661C9.11666 16.9661 7.81751 15.5063 7.81751 13.7134C7.81751 11.9206 9.09147 10.4607 10.6934 10.4607C12.3078 10.4607 13.5944 11.9334 13.5692 13.7134C13.5692 15.5063 12.2952 16.9661 10.6934 16.9661ZM21.3263 16.9661C19.7497 16.9661 18.4505 15.5063 18.4505 13.7134C18.4505 11.9206 19.7244 10.4607 21.3263 10.4607C22.9408 10.4607 24.2274 11.9334 24.2022 13.7134C24.2022 15.5063 22.9408 16.9661 21.3263 16.9661Z" fill="url(#paint0_linear_18_7)"/>
</g>
</g>
</g>
</g>
<defs>
<linearGradient id="paint0_linear_18_7" x1="16" y1="0.187256" x2="16" y2="24.7862" gradientUnits="userSpaceOnUse">
<stop stop-color="#3B9B6E"/>
<stop offset="0.0001" stop-color="var(--arc-palette-foregroundSecondary, #3B9B6D)"/>
<stop offset="1" stop-color="var(--arc-palette-foregroundTertiary, #417B5F)"/>
</linearGradient>
<clipPath id="clip0_18_7">
<rect width="32" height="25" fill="white"/>
</clipPath>
</defs>
</svg>
