<svg width="32" height="32" viewBox="0 0 32 32" fill="none" xmlns="http://www.w3.org/2000/svg">
<g id="github 1" clip-path="url(#clip0_18_13)">
<g id="g8187">
<path id="path8185" d="M29.8535 8.36004C28.4227 5.90861 26.482 3.96781 24.0308 2.5372C21.5792 1.10652 18.9028 0.391357 15.9997 0.391357C13.097 0.391357 10.4197 1.10673 7.96868 2.5372C5.51725 3.96773 3.57659 5.90861 2.14584 8.36004C0.715304 10.8114 0 13.4883 0 16.3907C0 19.8771 1.01717 23.0121 3.05203 25.7967C5.08666 28.5814 7.71511 30.5083 10.9372 31.5777C11.3122 31.6473 11.5899 31.5983 11.7704 31.432C11.951 31.2655 12.0412 31.057 12.0412 30.8073C12.0412 30.7656 12.0376 30.3908 12.0307 29.6823C12.0235 28.9739 12.0201 28.3559 12.0201 27.8285L11.541 27.9114C11.2354 27.9674 10.85 27.9911 10.3847 27.9844C9.91962 27.9779 9.43679 27.9292 8.93689 27.8385C8.43677 27.7487 7.9716 27.5404 7.54101 27.214C7.11065 26.8876 6.80513 26.4604 6.62454 25.933L6.41621 25.4536C6.27735 25.1344 6.05874 24.7799 5.76009 24.3912C5.46143 24.0022 5.15941 23.7385 4.8539 23.5997L4.70803 23.4953C4.61084 23.4259 4.52065 23.3422 4.43725 23.245C4.35392 23.1479 4.29153 23.0507 4.24987 22.9534C4.20813 22.856 4.24272 22.7761 4.35399 22.7134C4.46527 22.6507 4.66637 22.6203 4.95817 22.6203L5.37467 22.6825C5.65246 22.7382 5.99606 22.9045 6.40592 23.1824C6.81557 23.4602 7.15231 23.8212 7.41624 24.2654C7.73584 24.835 8.12089 25.269 8.57249 25.5677C9.02372 25.8663 9.47868 26.0154 9.93691 26.0154C10.3952 26.0154 10.7909 25.9807 11.1244 25.9116C11.4575 25.8421 11.77 25.7377 12.0618 25.5989C12.1868 24.668 12.5271 23.9528 13.0825 23.4529C12.2909 23.3697 11.5793 23.2445 10.9472 23.0779C10.3154 22.9111 9.66255 22.6404 8.98906 22.265C8.3152 21.8902 7.7562 21.4247 7.31189 20.8694C6.86752 20.3139 6.50283 19.5845 6.21832 18.6819C5.93368 17.779 5.79132 16.7375 5.79132 15.557C5.79132 13.8762 6.34003 12.4459 7.43725 11.2653C6.92327 10.0016 6.97179 8.585 7.58297 7.0156C7.98575 6.89046 8.58307 6.98437 9.37462 7.29675C10.1663 7.60927 10.746 7.87699 11.1142 8.09896C11.4824 8.32085 11.7774 8.50889 11.9996 8.66139C13.2915 8.30042 14.6247 8.1199 15.9996 8.1199C17.3745 8.1199 18.7079 8.30042 19.9999 8.66139L20.7915 8.16164C21.3329 7.82817 21.9722 7.52258 22.7078 7.24479C23.4439 6.96715 24.0068 6.89068 24.3959 7.01582C25.0206 8.58529 25.0763 10.0018 24.5622 11.2655C25.6593 12.4461 26.2082 13.8768 26.2082 15.5572C26.2082 16.7377 26.0654 17.7825 25.7812 18.6924C25.4966 19.6023 25.1288 20.331 24.6775 20.8799C24.2258 21.4287 23.6632 21.8905 22.9897 22.2652C22.3161 22.6403 21.663 22.911 21.0312 23.0778C20.3992 23.2446 19.6875 23.37 18.896 23.4533C19.6179 24.078 19.979 25.0642 19.979 26.4113V30.8067C19.979 31.0564 20.0658 31.2649 20.2396 31.4315C20.4132 31.5978 20.6873 31.6467 21.0624 31.577C24.2849 30.5078 26.9133 28.5808 28.9479 25.7961C30.9822 23.0116 31.9998 19.8765 31.9998 16.3901C31.999 13.4881 31.2834 10.8114 29.8535 8.36004Z" fill="url(#paint0_linear_18_13)"/>
</g>
</g>
<defs>
<linearGradient id="paint0_linear_18_13" x1="15.9999" y1="0.391357" x2="15.9999" y2="31.6084" gradientUnits="userSpaceOnUse">
<stop stop-color="#3B9B6E"/>
<stop offset="0.0001" stop-color="#3B9B6D"/>
<stop offset="1" stop-color="#417B5F"/>
</linearGradient>
<clipPath id="clip0_18_13">
<rect width="32" height="32" fill="white"/>
</clipPath>
</defs>
</svg>
