<svg width="32" height="32" viewBox="0 0 32 32" fill="none" xmlns="http://www.w3.org/2000/svg">
<g id="layer1">
<path id="path854" d="M7.53778 31.9864C6.58055 31.8957 5.50419 31.5848 4.59852 31.1374C2.25132 29.9779 0.614661 27.8003 0.107912 25.1627L0 24.601V15.9978V7.39452L0.107912 6.83283C0.774048 3.36556 3.36603 0.773939 6.83379 0.107896L7.39556 0H16H24.6044L25.1662 0.107896C28.634 0.773939 31.226 3.36556 31.8921 6.83283L32 7.39452V15.9978V24.601L31.8921 25.1627C31.2261 28.6294 28.6725 31.1917 25.1912 31.8865L24.6519 31.9942L16.1896 31.9993C11.5354 32.0021 7.64207 31.9963 7.53778 31.9864ZM17.6356 26.6574C20.5645 26.3585 22.8744 25.1458 24.4189 23.0962C25.6894 21.4103 26.3345 19.4526 26.4731 16.8622C26.6045 14.4075 26.2103 12.1715 25.3351 10.4081C24.1146 7.94854 22.0851 6.32718 19.3659 5.63922C17.8564 5.2573 15.7401 5.15468 14.0765 5.38272C9.67412 5.98622 6.72217 8.76237 5.88504 13.0864C5.68179 14.1362 5.64148 14.618 5.64148 15.9978C5.64148 17.4118 5.68278 17.8844 5.9024 18.984C6.51306 22.0415 8.28557 24.429 10.8709 25.6764C12.703 26.5604 15.1331 26.9128 17.6356 26.6574ZM15.4074 22.1396C14.0229 21.9031 13.213 21.2291 12.6673 19.8592C12.4811 19.3916 12.2912 18.6769 12.2101 18.1381C12.0443 17.0363 12.0538 14.9217 12.2295 13.8409C12.4684 12.3708 12.9409 11.3187 13.6718 10.6293C14.2852 10.0507 14.9518 9.82439 16.0474 9.82275C16.7944 9.82164 17.2141 9.90134 17.748 10.1457C18.8671 10.658 19.6299 12.024 19.9173 14.0306C20.0395 14.8838 20.0417 17.3198 19.9209 18.1308C19.708 19.5606 19.218 20.6697 18.5094 21.3257C17.7997 21.9826 16.4941 22.3252 15.4074 22.1396Z" fill="url(#paint0_linear_18_34)"/>
</g>
<defs>
<linearGradient id="paint0_linear_18_34" x1="16" y1="0" x2="16" y2="32" gradientUnits="userSpaceOnUse">
<stop stop-color="#3B9B6E"/>
<stop offset="0.0001" stop-color="#3B9B6D"/>
<stop offset="1" stop-color="#417B5F"/>
</linearGradient>
</defs>
</svg>
