<svg width="32" height="32" viewBox="0 0 32 32" fill="none" xmlns="http://www.w3.org/2000/svg">
<g id="tg 1">
<path id="path6604" d="M27.6129 4.87274C27.6129 4.87274 30.2031 3.86274 29.9872 6.3156C29.9153 7.32561 29.2677 10.8606 28.7641 14.6842L27.0373 26.0107C27.0373 26.0107 26.8934 27.6699 25.5983 27.9585C24.3031 28.2471 22.3605 26.9485 22.0007 26.6599C21.7129 26.4435 16.6045 23.1971 14.8057 21.6099C14.3021 21.1771 13.7265 20.3113 14.8777 19.3013L22.4325 12.0871C23.2959 11.2213 24.1593 9.20135 20.5617 11.6542L10.4887 18.5078C10.4887 18.5078 9.33753 19.2292 7.17907 18.5799L2.50228 17.1371C2.50228 17.1371 0.775474 16.0549 3.72543 14.9727C10.9205 11.582 19.7703 8.11915 27.6129 4.87274Z" fill="url(#paint0_linear_18_36)"/>
</g>
<defs>
<linearGradient id="paint0_linear_18_36" x1="16" y1="4.66675" x2="16" y2="28.0001" gradientUnits="userSpaceOnUse">
<stop stop-color="#3B9B6E"/>
<stop offset="0.0001" stop-color="#3B9B6D"/>
<stop offset="1" stop-color="#417B5F"/>
</linearGradient>
</defs>
</svg>
