<svg width="32" height="28" viewBox="0 0 32 28" fill="none" xmlns="http://www.w3.org/2000/svg">
<g id="vepurovk 1">
<g id="layer1">
<path id="path14485" d="M9.26339 25.3786C8.28467 25.247 7.27419 24.8882 6.43438 24.3741C4.99705 23.4943 4.03653 22.2031 3.61156 20.5796L3.50264 20.1635V13.6189V7.0743L3.61156 6.65819C3.75464 6.11159 3.90294 5.72904 4.15563 5.25472C5.05795 3.56097 6.69134 2.39463 8.80089 1.9377L9.25833 1.83862H16.4529H23.6475L24.105 1.9377C26.2145 2.39463 27.8479 3.56097 28.7502 5.25472C29.0029 5.72904 29.1512 6.11159 29.2943 6.65819L29.4032 7.0743V13.6189V20.1635L29.2943 20.5796C28.6584 23.0091 26.8092 24.6973 24.1248 25.299L23.6859 25.3973L16.5872 25.4031C12.683 25.4063 9.38723 25.3952 9.26339 25.3786ZM20.1267 22.7028C21.4543 20.1344 22.5073 14.6682 23.3418 6.01213C23.4243 5.15573 23.4516 4.97763 23.5058 4.94131C23.5617 4.90385 23.5627 4.89503 23.5132 4.87831C23.2771 4.79852 17.5047 3.94438 17.435 3.97891C17.3933 3.99954 17.4323 6.41539 17.4942 7.65023C17.6175 10.1078 17.2861 13.0087 16.5231 16.1495C16.289 17.1132 16.2904 17.1094 16.1684 17.1094C16.1163 17.1094 16.0647 17.096 16.0536 17.0797C16.0033 17.0056 15.2576 13.846 14.9609 12.4496C14.3182 9.42506 14.02 7.56989 13.9204 5.97686C13.8983 5.62283 13.8753 5.32878 13.8694 5.32342C13.8636 5.31806 13.5402 5.42857 13.1509 5.56899C11.4596 6.17911 10.2322 6.52565 9.18158 6.68968L8.68276 6.76756L8.68828 7.2032C8.72025 9.72125 10.1722 14.7635 12.7664 21.3651C13.0638 22.122 13.3157 22.749 13.3262 22.7585C13.3366 22.768 13.5998 22.7572 13.911 22.7346C14.6003 22.6844 16.3415 22.6818 16.9709 22.7301C17.6021 22.7785 18.5714 22.8905 19.2055 22.9883C19.995 23.1101 19.9011 23.1392 20.1267 22.7028Z" fill="url(#paint0_linear_18_38)"/>
</g>
</g>
<defs>
<linearGradient id="paint0_linear_18_38" x1="16.4529" y1="1.83862" x2="16.4529" y2="25.4036" gradientUnits="userSpaceOnUse">
<stop stop-color="#3B9B6E"/>
<stop offset="0.0001" stop-color="#3B9B6D"/>
<stop offset="1" stop-color="#417B5F"/>
</linearGradient>
</defs>
</svg>
