<?xml version="1.0" encoding="utf-8"?>
<!-- Generator: Adobe Illustrator 24.3.0, SVG Export Plug-In . SVG Version: 6.00 Build 0)  -->
<svg version="1.1"
	 id="svg5" inkscape:version="1.1.2 (b8e25be833, 2022-02-05)" sodipodi:docname="logo.svg" xmlns:inkscape="http://www.inkscape.org/namespaces/inkscape" xmlns:sodipodi="http://sodipodi.sourceforge.net/DTD/sodipodi-0.dtd" xmlns:svg="http://www.w3.org/2000/svg"
	 xmlns="http://www.w3.org/2000/svg" xmlns:xlink="http://www.w3.org/1999/xlink" x="0px" y="0px" viewBox="0 0 120 147"
	 style="enable-background:new 0 0 120 147;" xml:space="preserve">
<style type="text/css">
	.st0{fill:#DADADA;}
	.st1{fill:#E1B1E5;}
	.st2{fill:#A1A0A0;}
	.st3{fill:#2EB4E4;}
	.st4{fill:#6E6E6E;}
	.st5{fill:#595959;}
	.st6{fill:#000101;}
</style>
<sodipodi:namedview  bordercolor="#eeeeee" borderopacity="1" id="namedview7" inkscape:current-layer="g1045" inkscape:cx="227.20456" inkscape:cy="234.39644" inkscape:document-units="mm" inkscape:pagecheckerboard="0" inkscape:pageopacity="0" inkscape:pageshadow="0" inkscape:window-height="1031" inkscape:window-maximized="1" inkscape:window-width="1920" inkscape:window-x="-8" inkscape:window-y="-8" inkscape:zoom="3.4066218" pagecolor="#505050" showgrid="false">
	</sodipodi:namedview>
<g id="layer1" inkscape:groupmode="layer" inkscape:label="РЎР»РѕР№ 1">
	<g id="g1045" transform="translate(-281.94125,-490.96488)">
		<path id="path1059" class="st0" d="M360.7,626.8c0.1,0,0.2,0,0.3,0C361,626.8,360.9,626.8,360.7,626.8
			C360.6,626.8,360.5,626.8,360.7,626.8L360.7,626.8z M353.8,625c0.1,0,0.2,0,0.3,0C354.2,625.1,354.1,625.1,353.8,625
			C353.8,625.1,353.7,625.1,353.8,625L353.8,625z M350,624.7c0.1,0,0.4,0,0.5,0s0,0.1-0.3,0.1C350,624.8,349.9,624.8,350,624.7z
			 M353.9,623.9c-0.1-0.1-0.1-0.2,0-0.2c0,0,0.1,0,0.2,0.2C354.2,624.1,354.1,624.2,353.9,623.9L353.9,623.9z M357.7,620.5
			c0-0.2,0-0.3,0.1-0.2c0,0.1,0,0.3,0,0.4S357.7,620.7,357.7,620.5L357.7,620.5z M357.8,619.8c0.1,0,0.2,0,0.3,0
			C358.1,619.9,358,619.9,357.8,619.8C357.7,619.9,357.6,619.8,357.8,619.8L357.8,619.8z M357.6,617.3
			C357.4,617.1,357.4,617.1,357.6,617.3c0.2,0.1,0.3,0.2,0.3,0.2C357.9,617.6,357.8,617.6,357.6,617.3L357.6,617.3z M366.8,611.3
			c0,0,0.2-0.2,0.5-0.5l0.5-0.4l-0.4,0.5C366.9,611.3,366.8,611.4,366.8,611.3z M359.8,609.7c0,0,0.1-0.1,0.3-0.3
			c0.2-0.2,0.2-0.2,0.1,0.1C359.9,609.7,359.8,609.8,359.8,609.7z M363.6,608.9c0-0.2,0-0.3,0.1-0.2c0,0.1,0,0.3,0,0.4
			C363.6,609.3,363.6,609.2,363.6,608.9L363.6,608.9z M351.1,607.3l-0.4-0.4L351.1,607.3c0.3,0.1,0.4,0.3,0.4,0.4
			C351.6,607.8,351.4,607.7,351.1,607.3z M342.4,606.9c0.1,0,0.3,0,0.4,0c0.1,0,0,0.1-0.2,0.1S342.3,606.9,342.4,606.9z
			 M353.8,606.6c0.1,0,0.2,0,0.3,0C354.2,606.7,354.1,606.7,353.8,606.6C353.8,606.7,353.7,606.6,353.8,606.6L353.8,606.6z
			 M355.9,606.2c0,0,0.1-0.1,0.3-0.3c0.2-0.2,0.2-0.2,0.1,0.1C356,606.3,355.9,606.3,355.9,606.2z M360.7,605.4
			C360.5,605.2,360.5,605.2,360.7,605.4c0.2,0.1,0.3,0.2,0.3,0.2C361,605.8,360.9,605.7,360.7,605.4z M368.2,605.3
			C368,605.1,368,605.1,368.2,605.3c0.2,0.1,0.3,0.2,0.3,0.2C368.5,605.6,368.4,605.5,368.2,605.3z M362.9,604.8
			c0.1-0.2,0.3-0.3,0.3-0.3c0,0,0,0.1-0.2,0.3c-0.1,0.2-0.3,0.3-0.3,0.3S362.8,605,362.9,604.8z M358.6,604.9c0.1,0,0.3,0,0.4,0
			c0.1,0,0,0.1-0.2,0.1C358.6,604.9,358.5,604.9,358.6,604.9z M364.2,604.3c0.1,0,0.3,0,0.4,0c0.1,0,0,0.1-0.3,0.1
			C364.1,604.4,364.1,604.3,364.2,604.3L364.2,604.3z M337.7,603.7c0.1-0.2,0.3-0.3,0.3-0.3c0,0,0,0.1-0.2,0.3
			c-0.1,0.2-0.3,0.3-0.3,0.3S337.6,603.8,337.7,603.7z M339.1,603.4c-0.1-0.1-0.1-0.1,0-0.1c0.1,0,0.2,0.1,0.3,0.1
			C339.4,603.5,339.4,603.5,339.1,603.4L339.1,603.4z M344.2,603.3c-1-0.1-1.8-0.2-1.9-0.3c-0.1-0.1-0.3-0.5-0.6-1l-0.5-0.9l0.4-0.6
			c2.1-3.1,2.3-6.7,0.4-10.1c-0.9-1.6-2.8-2.8-4.6-3l-0.9-0.1l-0.3-0.8c-0.6-1.5-2.1-2.7-3.7-3.2c-0.7-0.2-0.8-0.2,2-0.6
			c3.4-0.6,8.2-1.9,12.1-3.4c0.2-0.1,0.3,0,0.3,0.1c0,0.4,0.4,1.1,1.3,2.1c1.9,2.1,2.8,4.1,3.8,8.1c0.1,0.5,0.2,1.6,0.2,2.8
			c0,2.1-0.2,3.2-0.8,4.1c-0.6,0.9-0.2,1.8,0.7,1.8c0.4,0,0.6-0.2,1.3-1.1c1.4-1.7,2.5-3.5,3.6-5.9l0.4-1l0.4,0.3
			c0.6,0.4,1.4,0.5,2.1,0.2c0.4-0.1,0.6-0.2,0.7-0.2c0,0,0.2,0.3,0.3,0.6c0.4,0.7,1.9,2.7,2.4,3c0.2,0.1,0.8,0.7,1.3,1.1l1,0.9
			l-0.1,0.9c-0.1,1.5-0.6,2.2-2,2.7c-0.4,0.1-1.1,0.3-1.6,0.3c-0.7,0.1-1.3,0.3-2.7,1c-1.5,0.7-1.9,0.9-2.9,1
			c-0.6,0.1-2.4,0.3-3.9,0.6C348.4,603.4,346.8,603.5,344.2,603.3L344.2,603.3z M333.7,599.1l-0.4-0.4L333.7,599.1
			c0.4,0.3,0.5,0.4,0.4,0.4C334.1,599.5,333.9,599.3,333.7,599.1z M330.6,598c0-0.2,0-0.3,0.1-0.2s0,0.3,0,0.4
			C330.6,598.3,330.6,598.2,330.6,598L330.6,598z M374.2,597c0-0.2,0-0.3,0.1-0.2s0,0.3,0,0.4C374.2,597.3,374.2,597.2,374.2,597
			L374.2,597z M369.1,596.6C368.9,596.4,368.9,596.4,369.1,596.6c0.2,0.1,0.3,0.2,0.3,0.2C369.4,596.9,369.3,596.8,369.1,596.6
			L369.1,596.6z M292.9,592.1c0-0.2,0.1-0.8,0.2-1.3c0.3-1.8,1-5,1.7-7.5c0.4-1.4,0.8-3,0.9-3.6c0.8-3.4,2-7.1,3.1-9.9l0.7-1.6
			l0.4,0.4c0.6,0.6,1.3,0.7,4.1,0.7c2.7-0.1,3.5-0.3,4.6-1.2c0.7-0.6,2.3-2.5,2.9-3.5c0.6-1,0.6-0.8,0.1,0.6c-1,2.5-2.4,6.5-2.6,7.5
			c-0.2,0.7-0.3,1.6-0.3,2.5c0,3.8,1.6,6.1,5.1,7.3l0.8,0.3l-0.6,0.1c-1.4,0.2-3.6,1.1-6,2.1c-1.4,0.6-2.9,1.4-3.5,1.6
			c-0.5,0.2-1.6,0.7-2.4,1.1c-0.8,0.4-1.5,0.7-1.6,0.8c-0.3,0.2-7.4,3.9-7.6,3.9C292.8,592.5,292.9,592.3,292.9,592.1L292.9,592.1z
			 M354.2,591.2c-0.4-3.9-1.9-7.8-3.8-10.2c-1.9-2.4-2-2.5-0.8-2.9c1.6-0.7,6.5-3.2,8.5-4.3c2.4-1.4,4.2-2.2,5.7-2.5
			c0.6-0.1,1.2-0.3,1.3-0.4c0.6-0.4,0.4-1.4-0.2-1.6c-1.3-0.4-4.5,0.8-8.1,3c-2.9,1.8-7.4,3.9-10.9,5.2c-6.8,2.5-10.8,3.4-17.4,4
			l-1,0.1l0.4-0.8c2.6-4.8,2.6-4.6,2.4-6.5c-0.1-1.5-0.5-2.9-1.1-3.9c-0.6-1-1.4-1.9-3.9-4.1c-2.5-2.3-3.3-2.8-5.3-3.4
			c-1.4-0.4-3.5-0.4-4.7-0.1l-0.8,0.2l0.3-0.7c0.2-0.4,0.7-1.8,1.2-3.1c1.1-3,1.4-3.7,3-6.8c1.2-2.5,1.5-2.9,3.8-5.7
			c1.1-1.3,2.3-2.3,3.2-2.5c0.9-0.2,1-0.2,1.1-0.6c0.2-0.6,0-1.2-0.5-1.3c-0.8-0.2-2.1,0.2-3.2,0.9l-0.4,0.3l0-1.9
			c0-1.6-0.1-2.1-0.4-3.2c-0.4-1.2-0.5-2.3-0.7-5.9l-0.1-1.2l1.1,1.1c1.1,1.1,2.6,2.2,3.6,2.6c0.9,0.4,4,1.1,5.3,1.2
			c1.4,0.1,1.8-0.1,1.8-0.9c0-0.6-0.3-0.9-1.1-1.1c-0.6-0.2-0.6-0.2-1.2-1.4c-0.8-1.7-1.3-3.5-1.6-5.9c-0.3-2.5-0.4-4.5-0.1-4.9
			c0.1-0.2,0.2-0.6,0.2-1.3c0-0.6,0.1-1.3,0.2-1.6c0.2-0.6,0.9-1.8,1.1-1.8c0,0,0.3,0.4,0.7,0.9c1,1.6,3,3,5,3.3
			c0.6,0.1,2.1,0.2,3.4,0.3c1.2,0.1,3,0.2,4,0.4c1,0.2,2.2,0.3,2.8,0.3c1,0,1.1,0,1.4-0.4c0.3-0.3,0.3-0.5,0.1-0.8
			c-0.2-0.4-0.2-0.4,0.2-0.3c0.6,0.1,1.8,0.5,2.5,0.8l0.6,0.3l-0.1,1.6c-0.1,1.5-0.1,1.7,0.2,1.9c0.4,0.4,1.1,0.4,1.4,0
			c0.2-0.2,0.3-0.6,0.4-2.2c0.1-2.1,0.3-3.1,0.9-4.4l0.4-0.8l0.2,0.4c0.2,0.5,0.5,0.8,1.6,1.3c1.1,0.6,2,0.7,3,0.6
			c1.1-0.1,1.9-0.6,2.9-1.6c1.4-1.3,1.3-1.4,1.3,0.6c0,2.3,0.4,6.3,0.8,7.6c0.2,0.8,0.3,1.4,0.3,2.4c0,1.8,0.1,2.9,0.4,3.2
			c0.6,0.6,1.8,0.1,1.7-0.8c0-0.3,0-0.5,0.2-0.7c0.3-0.3,0.3-1.2,0-2.5l-0.2-0.9l0.5-0.8c0.3-0.4,1-1.6,1.7-2.6
			c2.4-3.4,3.1-5.5,3.3-9.4c0.1-3.5-0.3-5.5-1.5-6.6c-0.5-0.4-0.6-0.5-1.3-0.5c-0.5,0-0.9,0.1-1.1,0.1c-0.2,0.1-0.3,0-0.3-0.4
			c0-1.1-1.2-2.6-2.4-2.8l-0.4-0.1l1.1-0.9c1.8-1.4,4.2-2.5,5-2.3c0.5,0.1,3.6,3.2,4.6,4.6c0.4,0.5,0.9,1.4,1.3,1.9
			c0.3,0.6,1,1.7,1.4,2.5c0.9,1.6,1.7,3.5,2.2,5.2c0.5,2,0.3,6.1-0.4,8.6c-0.4,1.2-1,2.6-2.9,5.6c-1.8,3-4.5,8.2-5.9,11.6
			c-0.8,1.8-1.4,4.3-1.6,6.5c-0.2,1.6-0.2,1.7,0.1,2.3c0.2,0.3,0.4,0.7,0.5,0.8c0.2,0.2,1.6,0.3,3.6,0.1c0.7-0.1,5-0.2,9.5-0.2
			l8.1,0l-1.7,1.4c-1.6,1.3-3.6,2.8-7.3,5.5c-3.3,2.4-7,5.6-8,7c-0.5,0.7-0.6,1-0.6,1.4c0,0.5,0.1,0.6,0.5,0.9
			c0.3,0.2,0.7,0.3,1.1,0.3c0.8,0,2,0.7,3.4,2.1c1.5,1.4,2.2,2.8,3.3,6.9c0.3,1.2,0.8,2.6,1,3.2c0.8,1.9,3.2,6.6,4.6,8.8
			c0.7,1,0.6,1.1-1,0.8c-1.5-0.2-3.3-0.8-5.3-1.7c-3.6-1.7-6.8-2.6-10-2.9c-2.6-0.2-2.7-0.3-2.6-0.5c0.3-0.9,0.2-2.1-0.6-4.7
			c-0.5-1.6-1.1-2.8-2.3-4.2c-1.9-2.2-3.7-3.2-5.3-3c-2,0.2-3.1,1.2-4.9,4.9c-1.7,3.4-1.8,3.8-1.8,6.4c0,1.8,0,2.1,0.3,2.6
			c0.2,0.3,0.4,0.7,0.6,0.8c0.5,0.4,0.5,0.9-0.2,2.5c-0.4,0.8-0.7,1.7-0.9,1.8C354.3,592.1,354.3,592,354.2,591.2L354.2,591.2z
			 M356.4,558.4c1.5-0.7,3.4-3.2,4.3-5.6c0.8-2.1,1-3.3,1.1-6.2c0.1-3.2-0.1-4.6-1-6.8c-0.3-0.8-0.8-2.2-1-3c-0.6-2.3-0.9-3-1.9-3.6
			c-0.9-0.6-1.7-0.7-3.7-0.8c-0.8,0-1.9-0.1-2.5-0.2c-1.3-0.2-2.5-0.1-3.1,0.2c-0.4,0.2-0.6,0.2-1.5,0c-0.6-0.1-1.6-0.2-2.2-0.3
			c-1-0.1-1.2,0-1.7,0.3c-0.3,0.2-1.1,0.6-1.8,0.9c-2.2,1.1-2.9,2-3.7,4.4c-0.3,0.8-0.7,1.8-0.9,2.3c-0.6,1.4-0.8,2.5-0.8,4
			c0,2.4,0.4,3.2,3.1,5.6c0.8,0.8,2.1,1.9,2.7,2.5c2,1.9,3,2.6,4.3,3.2c1.5,0.7,2.6,1,4.2,1.2l1.1,0.1l0.2,0.6
			c0.2,0.6,1,1.4,1.6,1.5c0.2,0,0.5,0.1,0.5,0.1C354.2,559,355.7,558.7,356.4,558.4L356.4,558.4z M363.4,591.5
			c-0.1-0.1-0.1-0.2,0-0.2c0,0,0.1,0,0.2,0.2C363.6,591.7,363.5,591.7,363.4,591.5L363.4,591.5z M368.6,589.8
			C368.5,589.5,368.5,589.5,368.6,589.8c0.2,0.1,0.3,0.2,0.3,0.2C369,590.1,368.8,590,368.6,589.8z M333.6,586.3
			c-0.2-0.3-0.3-0.5-0.2-0.4c0.2,0.1,0.8,1,0.7,1C334.1,586.8,333.9,586.6,333.6,586.3z M318.7,583.5c0.2,0,0.5,0,0.7,0
			c0.2,0,0,0.1-0.4,0.1C318.6,583.6,318.5,583.6,318.7,583.5L318.7,583.5z M320,583.6c0.1,0,0.3,0,0.4,0c0.1,0,0,0.1-0.3,0.1
			C319.9,583.6,319.8,583.6,320,583.6L320,583.6z M320.9,583.6c0.1,0,0.3,0,0.4,0c0.1,0,0,0.1-0.3,0.1
			C320.8,583.6,320.7,583.6,320.9,583.6L320.9,583.6z M321.7,583.6c0.1,0,0.3,0,0.4,0c0.1,0,0,0.1-0.3,0.1
			C321.7,583.6,321.6,583.6,321.7,583.6L321.7,583.6z M322.8,583.6c0.1,0,0.3,0,0.4,0c0.1,0,0,0.1-0.2,0.1
			C322.8,583.6,322.7,583.6,322.8,583.6z M323.8,583.5c0.2,0,0.4,0,0.6,0c0.1,0,0,0.1-0.3,0.1C323.8,583.6,323.7,583.6,323.8,583.5
			L323.8,583.5z M300.4,563.7c0,0,0.2-0.2,0.5-0.5l0.5-0.4l-0.4,0.5C300.5,563.8,300.4,563.9,300.4,563.7z M312.6,561.9
			c0.7-2.3,0.4-4.6-0.6-5.7c-0.6-0.7-1.3-0.9-2.4-0.8c-0.8,0.1-0.9,0.1-1-0.2c-0.8-2-1.8-4.8-2.2-6.2c-0.3-0.9-0.8-2.4-1.2-3.3
			c-1.6-3.9-3.9-11.5-4.7-15.5c-1.1-5.5-1.3-8.7-1-13.4c0.1-2.2,0.2-2.8,0.7-4.3c0.3-0.9,0.6-2,0.7-2.4c0.3-1.6,2.7-6.4,3.9-8
			c0.3-0.4,0.8-0.9,1.2-1.1c0.6-0.3,0.7-0.3,2.7-0.3c1.1,0,2.4,0.2,2.8,0.3c1.2,0.3,3.2,1.1,4.5,1.7c1.5,0.8,3.2,1.9,2.8,1.9
			c-0.6,0-1.8,0.8-2.4,1.5c-0.9,1.1-1.2,2.1-1.3,4.1c-0.1,1.4,0,1.9,0.2,3.2c0.7,3.2,1.6,4.8,4.3,7.5c1,1,2,2.1,2.3,2.5
			c1,1.3,1.5,1.7,2.2,2c1.1,0.3,1.8,0.3,2.6-0.2l0.8-0.4v0.5c0,1.9,0.9,6,1.6,7.6c0.2,0.5,0.4,0.9,0.3,0.9c-0.1,0-0.6-0.1-1-0.2
			c-1.5-0.4-2.6-1.1-4.2-2.7c-1.1-1.1-1.5-1.6-2.1-2.7c-0.4-0.7-0.7-1.6-0.8-1.9c-0.4-1.2-1.3-1.6-1.9-0.7c-0.3,0.4-0.3,0.4-0.1,1.9
			c0.2,1.5,0.4,3.6,0.6,6.4l0.1,1.6l-0.4-0.1c-0.6-0.2-2.1-0.1-2.7,0.1c-0.8,0.3-1.3,0.8-1.9,1.9c-1,2-1.2,3.5-0.8,5.6
			c0.4,2,1.8,4,2.9,4.3c0.7,0.2,1.9,0,2.5-0.3c0.3-0.2,0.5-0.2,0.5-0.1s-0.4,0.6-0.8,1.2c-0.5,0.6-1.4,2.2-2.2,3.8
			c-1.8,3.6-1.9,4-3.1,7.1c-0.9,2.4-1.7,4.1-1.8,4.1C312.3,562.9,312.4,562.5,312.6,561.9L312.6,561.9z M312.3,528.4
			c0.4-0.2,0.6-1.1,0.7-2.9c0-0.9,0.1-2.5,0.1-3.6c0.1-2,0.1-2.4-0.4-6c-0.6-4-1.7-6.4-3.5-7.5c-0.6-0.3-0.8-0.4-1.7-0.4
			c-1.3,0-1.9,0.4-2.3,1.2c-0.3,0.6-0.3,0.7,0,2.4c0.3,2.3,1,5.5,1.6,7.9c0.8,3.1,2.5,6.7,3.9,8.1
			C311.3,528.6,311.7,528.7,312.3,528.4L312.3,528.4z M322.5,505.3l-0.4-0.4L322.5,505.3c0.4,0.3,0.5,0.4,0.4,0.4
			C322.9,505.7,322.7,505.5,322.5,505.3z M321.1,504l-0.4-0.4L321.1,504c0.4,0.3,0.5,0.4,0.4,0.4C321.5,504.4,321.3,504.2,321.1,504
			z M374.6,501.5l-0.5-0.5L374.6,501.5c0.6,0.4,0.7,0.5,0.5,0.5C375.1,502,374.9,501.8,374.6,501.5L374.6,501.5z"/>
		<path id="path1057" class="st1" d="M348.7,548.3c-0.4-0.2-1-0.7-1.4-1.1c-0.7-0.7-0.7-0.7-0.8-1.9c-0.1-0.7-0.1-1.9-0.1-2.6
			c0-1.7,0.2-2.3,0.8-2.2c0.3,0.1,0.5-0.1,1-0.5c0.6-0.6,0.7-0.6,1.1-0.5c1.5,0.2,3.7,1.7,4.1,2.9c0.5,1.2,0,3.1-1.2,4.7
			C350.9,548.8,350.1,549.1,348.7,548.3z M319.9,546.2c0.1-0.7-0.3-1-1.4-1c-0.8,0-0.9,0-1.2-0.4c-1-1.3-1.5-3.3-1.1-4.8
			c0.3-1.2,1-2.6,1.4-2.7c0.8-0.3,2.4,0,2.7,0.4c0.1,0.1,0.2,0.9,0.2,1.7c0.1,1.4,0.2,2.1,0.5,2.1c0.5,0-0.4,5-1,5.2
			C319.9,546.7,319.9,546.5,319.9,546.2L319.9,546.2z M366.4,523.8c-0.4-3.4-0.4-6,0-7.7c0.4-1.9,0.8-3,1.3-4
			c0.5-0.8,1.9-1.9,2.2-1.8c0.2,0,0.4,0.3,0.5,0.8c0.2,0.6,0.3,1.2,0.3,3.3c0.1,2.3,0,2.7-0.3,3.9c-0.5,2.1-0.8,2.8-2.2,4.8
			C366.4,526.1,366.6,526,366.4,523.8L366.4,523.8z M310.5,524.1c-1.1-2.1-2-4.8-2.7-8.3c-0.4-2.1-1-5.5-0.9-5.6
			c0-0.1,0.3-0.1,0.7-0.1c0.5,0,0.7,0.1,1.1,0.6c1.1,1.1,1.6,2.8,2.2,6.5c0.3,1.8,0.3,2.7,0.3,4.6c0,1.3-0.1,2.4-0.2,2.6
			C310.7,524.5,310.7,524.5,310.5,524.1z"/>
		<path id="path1055" class="st2" d="M361.5,629.1c0.1,0,0.2,0,0.3,0C361.9,629.1,361.8,629.2,361.5,629.1
			C361.4,629.2,361.4,629.1,361.5,629.1L361.5,629.1z M365.2,628.7c0,0,0.1-0.1,0.3-0.3c0.2-0.2,0.2-0.2,0.1,0.1
			C365.3,628.7,365.2,628.8,365.2,628.7z M361.1,626.8c0.1,0,0.2,0,0.3,0C361.4,626.8,361.3,626.8,361.1,626.8
			C361,626.8,361,626.8,361.1,626.8L361.1,626.8z M358.4,622.4c0-0.2,0-0.3,0.1-0.2s0,0.3,0,0.4
			C358.4,622.6,358.4,622.6,358.4,622.4L358.4,622.4z M354.4,620.2c0.1,0,0.2,0,0.3,0C354.8,620.3,354.7,620.3,354.4,620.2
			C354.3,620.3,354.3,620.3,354.4,620.2L354.4,620.2z M357.4,619.2C357.4,619.1,357.4,619,357.4,619.2c0.1,0,0.1,0.1,0.1,0.2
			S357.4,619.4,357.4,619.2L357.4,619.2z M359.3,615.7l-0.4-0.5L359.3,615.7c0.5,0.4,0.6,0.5,0.5,0.5
			C359.7,616.1,359.5,615.9,359.3,615.7L359.3,615.7z M353.6,613.7c0.1,0,0.2,0,0.3,0C353.9,613.8,353.8,613.8,353.6,613.7
			C353.5,613.8,353.4,613.8,353.6,613.7L353.6,613.7z M371.1,608.4c0.1-0.2,0.3-0.3,0.3-0.3s0,0.1-0.2,0.3s-0.3,0.3-0.3,0.3
			C370.8,608.7,370.9,608.6,371.1,608.4z M357.7,607.8c0.1-0.1,0.3-0.2,0.3-0.2C358,607.6,357.9,607.7,357.7,607.8
			C357.4,608,357.4,608,357.7,607.8L357.7,607.8z M358.4,607.8c0.1,0,0.3,0,0.4,0c0.1,0,0,0.1-0.3,0.1
			C358.3,607.8,358.3,607.8,358.4,607.8L358.4,607.8z M336.5,606.9C336.3,606.7,336.3,606.6,336.5,606.9c0.2,0.1,0.3,0.2,0.3,0.2
			C336.8,607.2,336.6,607.1,336.5,606.9z M344.2,607c0.1-0.1,0-0.2-0.3-0.2c-0.4,0-0.4,0-0.1-0.1C344.3,606.7,344.6,606.9,344.2,607
			C344.2,607.1,344.2,607.1,344.2,607L344.2,607z M367.8,606C367.6,605.8,367.6,605.8,367.8,606c0.2,0.1,0.3,0.2,0.3,0.2
			C368.1,606.3,368,606.3,367.8,606z M347.1,605.8l-0.3-0.3L347.1,605.8c0.4,0.2,0.4,0.3,0.3,0.3C347.4,606.1,347.3,606,347.1,605.8
			L347.1,605.8z M368,604.4c0-0.2,0-0.3,0.1-0.2c0,0.1,0,0.3,0,0.4S368,604.6,368,604.4L368,604.4z M343.4,604.4c0.1,0,0.2,0,0.3,0
			C343.7,604.5,343.6,604.5,343.4,604.4C343.3,604.5,343.3,604.5,343.4,604.4L343.4,604.4z M338.2,603.3c0.1-0.1,0.3-0.1,0.5-0.1
			c0.3,0,0.3,0.1-0.1,0.1C338.3,603.4,338.1,603.4,338.2,603.3z M371.4,601.7C371.2,601.4,371.2,601.4,371.4,601.7
			c0.3,0.1,0.4,0.2,0.4,0.2s0,0-0.1,0C371.7,601.9,371.5,601.8,371.4,601.7z M331.7,600.8C331.5,600.6,331.5,600.6,331.7,600.8
			c0.2,0.1,0.3,0.2,0.3,0.2C332,601.1,331.9,601,331.7,600.8z M374.6,600.6c0-0.2,0-0.3,0.1-0.2c0,0.1,0,0.3,0,0.4
			S374.6,600.8,374.6,600.6L374.6,600.6z M369.8,600.4c0-0.2,0-0.3,0.1-0.2c0,0.1,0,0.3,0,0.4C369.9,600.8,369.8,600.6,369.8,600.4
			L369.8,600.4z M367.5,599.4C367.5,599.2,367.6,599.2,367.5,599.4c0.1,0,0.1,0.1,0.1,0.2C367.5,599.6,367.5,599.5,367.5,599.4
			L367.5,599.4z M366.3,597.3C366.1,597.1,366.1,597.1,366.3,597.3c0.2,0.1,0.3,0.2,0.3,0.2C366.6,597.6,366.5,597.6,366.3,597.3
			L366.3,597.3z M371.1,596.7c0.2,0,0.4,0,0.6,0c0.1,0,0,0.1-0.3,0.1C371,596.8,370.9,596.8,371.1,596.7L371.1,596.7z M368.2,595.9
			C368,595.6,368,595.6,368.2,595.9c0.2,0.1,0.3,0.2,0.3,0.2C368.5,596.2,368.4,596.1,368.2,595.9z M332.1,594.9
			c0,0,0.1-0.1,0.3-0.3c0.2-0.2,0.2-0.2,0.1,0.1C332.2,594.9,332.1,595,332.1,594.9L332.1,594.9z M362.9,593.9l-0.4-0.5L362.9,593.9
			c0.5,0.4,0.6,0.5,0.5,0.5C363.4,594.4,363.2,594.2,362.9,593.9z M372.9,593.7l-0.4-0.4L372.9,593.7c0.3,0.1,0.4,0.3,0.4,0.4
			C373.3,594.2,373.2,594.1,372.9,593.7z M334.2,593.7c0.1,0,0.4,0,0.5,0s0,0.1-0.3,0.1S334.1,593.7,334.2,593.7z M364.3,592.5
			l-0.4-0.4L364.3,592.5c0.3,0.1,0.4,0.3,0.4,0.4C364.7,593,364.6,592.9,364.3,592.5z M354.2,592c0-0.3,0-0.6,0.1-0.6
			c0.1,0,0.2,0.9,0.1,1C354.2,592.5,354.2,592.3,354.2,592L354.2,592z M366.8,591.3l-0.3-0.3L366.8,591.3c0.4,0.2,0.4,0.3,0.3,0.3
			C367.1,591.6,367,591.5,366.8,591.3z M369.8,591.1l-0.5-0.5L369.8,591.1c0.3,0.2,0.6,0.5,0.6,0.5
			C370.4,591.7,370.3,591.6,369.8,591.1L369.8,591.1z M310.7,580.9C310.5,580.7,310.5,580.7,310.7,580.9c0.3,0.1,0.4,0.3,0.3,0.3
			C310.9,581.2,310.8,581.1,310.7,580.9L310.7,580.9z M380,570.4l-0.3-0.3L380,570.4c0.4,0.2,0.4,0.3,0.3,0.3
			C380.3,570.7,380.2,570.6,380,570.4z M381.1,568.8C380.9,568.5,380.9,568.5,381.1,568.8c0.2,0.1,0.3,0.2,0.3,0.2
			C381.4,569.1,381.3,569,381.1,568.8L381.1,568.8z M327.4,568.2l-0.3-0.3L327.4,568.2c0.2,0.1,0.4,0.2,0.4,0.3
			C327.8,568.6,327.7,568.6,327.4,568.2z M395.3,551.4c0,0,0.1-0.1,0.3-0.3c0.2-0.2,0.2-0.2,0.1,0.1
			C395.5,551.5,395.3,551.5,395.3,551.4z M347,547l-0.4-0.4L347,547c0.3,0.1,0.4,0.3,0.4,0.4C347.5,547.5,347.4,547.4,347,547z
			 M320.4,538.9c0-0.2,0-0.3,0.1-0.2s0,0.3,0,0.4S320.4,539.1,320.4,538.9L320.4,538.9z M323.3,532.8
			C323.1,532.6,323.1,532.6,323.3,532.8c0.3,0.1,0.4,0.3,0.3,0.3C323.5,533.1,323.4,532.9,323.3,532.8L323.3,532.8z M322.3,531.8
			l-0.4-0.4L322.3,531.8c0.4,0.3,0.5,0.4,0.4,0.4C322.6,532.2,322.5,532,322.3,531.8z M340.6,521.9c0.2,0,0.4,0,0.6,0
			c0.1,0,0,0.1-0.3,0.1C340.6,522,340.5,522,340.6,521.9L340.6,521.9z M383.6,519.1c0-0.7,0-1,0.1-0.7s0,0.9,0,1.3
			C383.7,520.1,383.6,519.8,383.6,519.1L383.6,519.1z M332.5,519.3C332.4,519.1,332.4,519.1,332.5,519.3c0.3,0.1,0.4,0.3,0.3,0.3
			C332.8,519.6,332.7,519.5,332.5,519.3L332.5,519.3z M362.6,505.5c0,0,0.2-0.2,0.5-0.5l0.5-0.4l-0.4,0.5
			C362.7,505.5,362.6,505.6,362.6,505.5z M374.2,504C374,503.7,374,503.7,374.2,504c0.2,0.1,0.3,0.2,0.3,0.2
			C374.5,504.3,374.3,504.2,374.2,504L374.2,504z M307.2,498.9c0.3,0,0.7,0,0.9,0c0.3,0,0,0.1-0.5,0.1S306.9,498.9,307.2,498.9z"/>
		<path id="path1053" class="st3" d="M338.1,602.6c0.8-0.8,0.8-0.8,1.2-0.1c0.1,0.2,0.1,0.3-0.5,0.5c-0.3,0.2-0.8,0.3-1,0.3
			C337.3,603.4,337.3,603.4,338.1,602.6L338.1,602.6z M340.8,600.6c-0.3-0.3-0.6-0.4-0.8-0.4c-0.4,0-0.4,0-0.4-0.9
			c0-0.8-0.1-1-0.8-2.4c-0.4-0.8-0.8-1.7-0.8-1.8s-0.2-0.4-0.3-0.6c-0.3-0.3-0.4-0.5-0.5-2.9c-0.1-1.4-0.2-2.9-0.3-3.3
			c-0.1-0.5-0.1-0.9-0.1-0.9c0.2-0.2,2.1,0.3,2.9,0.7c1.1,0.6,1.9,1.4,2.6,2.6c1.6,3.1,1.6,6.3-0.1,9.1
			C341.3,601.1,341.2,601.1,340.8,600.6z M334.6,591.3c-0.5-0.7-0.6-1.6-0.2-2.3c0.2-0.4,0.3-0.5,0.4-0.4c0.1,0.1,0.4,2.3,0.4,3.1
			C335.2,591.9,335,591.8,334.6,591.3L334.6,591.3z M358.5,590.9c-0.6-0.2-1-0.4-1-0.6c0-0.2,1.7-4.5,2.1-5.3
			c0.3-0.6,0.4-0.6,0.6-0.4c0.1,0.1,0.1,0.6-0.1,1.7c-0.2,1.5-0.2,1.6,0.1,2.9c0.2,0.7,0.3,1.4,0.2,1.5c-0.1,0.2-1,0.4-1.4,0.4
			C359,591,358.7,591,358.5,590.9L358.5,590.9z M355.9,587.9c-0.1-0.2-0.2-0.4-0.3-0.4c-0.1,0-0.3-0.3-0.6-0.7
			c-0.4-0.7-0.4-0.8-0.4-2.6c0-2.5,0.2-3.1,1.8-6.4c1.5-3,2.3-4,3.5-4.6c1.7-0.7,3.1-0.5,4.8,0.8c1.1,0.8,2.7,2.6,3.4,3.9
			c1,1.8,1.9,5.3,1.6,6.4l-0.2,0.6l-2.1-0.1c-3.1-0.1-4.9-0.5-4.9-1.1c0-0.3-0.7-0.9-1.1-0.8c-0.4,0.1-0.5-0.3-0.1-0.7
			c0.4-0.4,0.4-1,0-1.4c-0.5-0.5-0.9-0.4-1.8,0.6c-0.9,1-1.7,2.5-2.7,5.1c-0.4,1-0.8,1.9-0.8,1.9C356.1,588.3,356,588.1,355.9,587.9
			L355.9,587.9z M300.8,569.2c-0.8-0.3-1.2-0.7-1-1.1c0.1-0.5,1.6-2.4,2.7-3.6c0.6-0.6,1.3-1.1,2-1.5c1.5-0.8,1.7-1.4,1-2.6
			c-0.3-0.4-1.8-1.6-3-2.3l-0.8-0.5l3,0c1.7,0,3.3,0.1,3.6,0.2c0.6,0.2,1.1,0,1.3-0.4c0.2-0.3,0.1-0.9-0.3-1.2
			c-0.2-0.2-0.4-0.4-0.4-0.4c0-0.2,1.6-0.3,2.2-0.1c2.3,0.7,2.7,4.8,0.8,8.6c-0.5,1.1-2.2,3.2-3.1,4c-1.1,1-1.9,1.2-4.8,1.2
			C301.9,569.4,301.2,569.4,300.8,569.2L300.8,569.2z M302.4,561.8c0.6-0.6,1-0.8,1.1-0.6c0,0.1-0.3,0.3-0.8,0.6l-0.8,0.5
			L302.4,561.8z M353.4,558.7c-0.7-0.2-1.6-1.1-1.8-1.7c-0.1-0.4-0.1-0.4-1.2-0.5c-1.5-0.1-2.6-0.4-4-1.1c-1.8-0.8-2.5-1.4-7.4-6
			c-2.6-2.4-2.9-3-2.9-5.5c0-1.5,0.4-3.3,1-4.5c0.2-0.3,0.5-1.2,0.7-1.9c0.6-2,1.6-3.1,3.5-4c0.6-0.3,1.3-0.7,1.7-0.9
			c0.5-0.3,0.7-0.4,1.8-0.4c0.7,0,1.7,0.1,2.4,0.2c0.9,0.2,1.2,0.2,1.6,0c0.8-0.3,1.3-0.4,3.1-0.2c1,0.1,2.5,0.2,3.4,0.2
			c1.9,0.1,2.5,0.3,3.4,1.2c0.5,0.5,0.9,1.3,1.4,3.5c0.2,0.6,0.6,1.9,0.9,2.9c0.9,2.3,1,3.6,0.9,6.7c-0.1,2.7-0.3,3.9-1.1,6
			c-0.9,2.4-2.9,5-4.4,5.7C355.5,558.8,354.2,558.9,353.4,558.7L353.4,558.7z M351.1,550.5c1.4-0.5,3.4-2.9,4-4.9
			c0.5-1.5,0.5-3.5,0-4.5c-0.7-1.4-2.7-2.9-4.8-3.6c-0.7-0.2-3-0.1-3.4,0.1c-0.7,0.5-1.7,1.6-1.9,2c-0.6,1.1-0.6,1.7-0.4,4.2
			c0.1,1.4,0.3,2.7,0.4,3.1c0.4,1.1,2.5,3,4,3.5C349.6,550.8,350.2,550.8,351.1,550.5L351.1,550.5z M302.1,555.6
			c0-0.2,1-0.5,1.5-0.5c0.3,0,0.7,0.1,1.1,0.3l0.6,0.3l-1.6,0C302.8,555.7,302.1,555.6,302.1,555.6z M324.2,525.4
			c-0.7-0.2-1.1-0.6-2-1.7c-0.4-0.5-1.5-1.7-2.5-2.7c-2.7-2.7-3.7-4.3-4.4-7.5c-0.4-1.9-0.4-4.4,0.1-5.7c0.4-1.2,1.3-2.2,2.2-2.6
			c1.2-0.6,1.3-0.5,2.8,0.8c1.6,1.5,3.1,3.6,5.5,7.9c0.7,1.2,2,5,2,5.8c0,0.3-0.1,1.2-0.2,2.1c-0.1,0.8-0.2,1.9-0.2,2.3l0,0.8
			l-0.8,0.4C325.9,525.7,325.2,525.8,324.2,525.4L324.2,525.4z M358.4,520.7c-1.4-0.2-3.2-1.5-3.2-2.2c0-1,5.7-8.5,9-11.9
			c1.2-1.2,1.4-1.4,1.8-1.4c1.2,0,2.6,1.6,2.6,2.8c0,0.5-0.1,0.6-0.7,1c-1,0.6-2.1,2.1-2.7,3.4c-0.5,1.1-1.1,4-1.2,4.9
			c0,0.5-0.1,0.6-1.2,1.6C361.3,520.5,360,521,358.4,520.7L358.4,520.7z"/>
		<path id="path1051" class="st4" d="M360.1,629.1c0,0-0.4-0.1-0.7-0.1c-0.4,0-0.7-0.1-0.7-0.1c0-0.3-0.1-0.5-0.2-0.4
			c-0.1,0-0.2,0-0.1-0.1c0-0.1,0-0.1,0-0.1c-0.2,0-0.1-0.7,0.1-1.1c0.1-0.2,0.2-0.3,0.3-0.2c0.1,0,0.2,0,0.4-0.1
			c0.1-0.1,0.5-0.1,0.9-0.1c0.4,0,1.3,0,2,0c1-0.1,1.2-0.1,1.2-0.3c-0.1-0.2,0-0.2,0.3,0c0.3,0.2,0.4,0.2,0.7,0.1
			c0.2-0.1,0.4-0.1,0.4-0.1c0.1,0,0.1,0,0.1-0.1c0-0.1,0.1-0.1,0.1-0.1c0.1,0.1,0.2-0.1,0.3-0.4l0.2-0.4l0.3,1.1
			c0.1,0.6,0.2,1.2,0.2,1.3c-0.2,0.5-0.7,0.9-1.1,1C363.8,629.1,360.2,629.2,360.1,629.1L360.1,629.1z M352.1,627.2
			c0.1,0,0.2,0,0.3,0C352.4,627.2,352.3,627.3,352.1,627.2C352,627.3,352,627.2,352.1,627.2L352.1,627.2z M348.1,627
			c-0.3-0.1-0.7-0.2-0.9-0.4c-0.5-0.4-1.6-2.5-1.6-3.2c0-0.6,0.5-1.1,1.1-1.3c0.4-0.1,0.5,0,0.6,0.2c0.1,0.2,0.2,0.3,0.3,0.2
			c0.2-0.1,0.4,0.3,0.4,0.8c0,0.1,0.2,0.5,0.3,0.8l0.3,0.6h1.8h1.8l-0.3,0.4c-0.2,0.2-0.4,0.4-0.4,0.4c-0.1,0-0.1,0.1,0,0.3
			c0.1,0.2,0.1,0.3,0,0.3s-0.1,0.1-0.1,0.2s0.1,0.3,0.2,0.4c0.1,0,0.1,0.1,0.1,0.2C351.8,627.2,348.8,627.2,348.1,627L348.1,627z
			 M352.3,620.8c0.2-0.2,0.4-0.4,0.4-0.4s-0.1,0.2-0.3,0.4c-0.2,0.2-0.4,0.4-0.4,0.4C352,621.2,352.1,621,352.3,620.8z M361,620.3
			c0-0.4,0-0.4-0.6-0.4c-0.3,0-0.6,0-0.7-0.1c0-0.1-0.1-0.1-0.2-0.1c-0.1,0-0.1-0.3-0.1-0.7c0-0.7-0.1-0.8-0.4-1.1
			c-0.2-0.2-0.4-0.2-0.6-0.2c-0.1,0-0.5-0.2-0.8-0.5c-0.7-0.7-1-0.7-1.2-0.2c-0.3,0.8-1,1.6-2.1,2.3c-0.6,0.4-1.1,0.7-1,0.6
			c0.2-0.2,0.2-0.9,0-0.9c-0.1,0-0.1-0.1-0.1-0.2s0-0.2-0.1-0.2c-0.1,0-0.1-0.1-0.1-0.1c0-0.1,0-0.2-0.2-0.2
			c-0.8-0.3-0.8-0.3-0.1-0.8c1.3-0.8,1.5-1.1,1.8-3.4l0.1-0.5l-0.9,0c-1.2,0-2.9-0.6-4-1.5c-0.3-0.2-0.4-0.2-0.6-0.1
			c-0.2,0.1-0.8,0.2-1.3,0.2c-0.9,0.1-1.2,0-2-0.3c-0.5-0.2-1-0.3-1.1-0.3c-0.1,0-0.1,0-0.1,0c0.1-0.1-0.2-0.4-0.5-0.8
			c-0.5-0.6-1.1-1.9-0.8-1.9c0.1,0,0.2-0.4,0.3-0.9c0.1-0.5,0.3-0.9,0.4-1c0.4-0.3,0.1-0.4-1-0.3c-0.9,0.1-1.1,0.1-1.4-0.2
			c-0.5-0.4-0.5-1.1-0.1-1.6c0.4-0.5,2.2-0.7,3.3-0.4c1.1,0.3,2.1,1,2.2,1.6c0,0.3,0.1,0.4,0.3,0.2c0.1-0.1,0.1,0.1-0.1,0.5
			c-0.2,0.4-0.5,0.7-0.7,0.8c-0.3,0.1-0.4,0.3-0.4,0.9c-0.1,0.8,0,1,0.7,1.3c0.7,0.3,1,0.3,0.9-0.1c0-0.2,0-0.3,0-0.2
			c0.1,0,0.2,0,0.2-0.1c0.4-0.7,1.5-0.6,2.6,0.3c0.4,0.3,0.8,0.5,0.8,0.5c0.1-0.1,0.1,0,0,0.1c-0.1,0.2,1.4,1,2.2,1.1
			c0.4,0.1,0.6,0,0.9-0.3c0.4-0.3,0.6-0.4,1.3-0.4c0.5,0,1.3,0.1,1.9,0.3c0.7,0.2,1.2,0.3,1.6,0.2c0.5-0.1,0.5-0.1,0.4-0.5
			c-0.2-0.4-0.1-0.9,0.3-1.2c0.4-0.4,1.3-0.3,2,0.2c0.8,0.6,1.6,0.7,2.3,0.3c0.8-0.4,0.8-0.5,0.5-0.9c-0.4-0.4-0.4-1.1,0.1-1.6
			c0.4-0.3,0.4-0.3,1.7-0.2c1.3,0.1,1.4,0.1,2.1-0.2c0.6-0.3,0.8-0.4,1-0.8c0.1-0.3,0.2-0.5,0.2-0.6c0,0-0.3-0.1-0.7-0.1
			c-0.9-0.1-1.2-0.5-1.2-1.3c0-0.5,0-0.5-0.2-0.3c-0.3,0.4-1.3,0.9-1.8,0.9c-0.6,0-1-0.5-1-1.1c0-0.6,0.3-1,1.1-1.4
			c0.6-0.3,1-0.3,1.4-0.1c0.2,0.1,0.3,0.1,0.4,0.1c0.1,0,0.1,0,0,0.1c-0.1,0.1,0,0.2,0.1,0.3c0.1,0.1,0.1,0.3,0.1,0.4
			c-0.1,0.2,0,0.2,0.3,0.1c0.2-0.1,0.8-0.2,1.3-0.3c0.9-0.2,1-0.2,1.8-1.2c0.9-1.1,0.9-1.4,0.2-1.9c-0.4-0.2-0.5-0.4-0.5-0.9
			c0-0.4,0.1-0.8,0.3-1.2c0.6-1.1,0.3-2.4-0.6-3c-0.5-0.4-0.7-0.6-0.5-0.6c0.1,0,0.2-0.1,0.3-0.3c0.1-0.1,0.2-0.3,0.3-0.3
			c0.1,0,0.1-0.2,0.1-0.4s0-0.4,0.1-0.5c0.1-0.1,0.1-0.2-0.1-0.3c-0.1-0.1-0.2-0.1-0.2-0.2c0.3-0.3,2.1,1.2,2.5,2
			c0.4,0.8,0.6,1.8,0.6,2.7c0,0.8-0.1,1.1-0.5,1.9c-0.3,0.6-0.7,1.1-0.9,1.2l-0.4,0.2l0.4,0.1c0.7,0.1,1.2,0.1,1.4-0.1
			c0.1-0.1,0.1-0.2,0.1-0.3c0,0,0-0.1,0.1-0.1s0.2-0.1,0.2-0.3c0-0.2,0.1,0.1,0.1,0.6c0,1.2-0.2,1.9-1.2,3.1
			c-0.4,0.5-0.7,0.9-0.7,1.1c0,0.1-0.1,0.2-0.1,0.1c-0.1,0-0.2,0-0.4,0.2c-0.1,0.1-0.6,0.3-0.9,0.4c-1.1,0.3-1.1,0.3-0.8,0.6
			c0.2,0.3,0.4,0.3,0.8,0.3c0.3,0,0.7-0.1,0.8-0.1c0.5-0.3-0.5,1.7-1.1,2.3c-0.5,0.5-2.4,1.4-2.9,1.4c-0.2,0-0.7,0-1.1-0.1
			c-0.6-0.1-0.7-0.1-0.6,0.1c0.1,0.2,0.2,0.2,0.7,0.2c0.4,0,0.6,0,0.6,0.1c0,0.2-1.6,1.6-2.4,1.9c-0.9,0.4-2.1,0.6-2.9,0.4
			c-0.4-0.1-0.6-0.1-0.7,0.1c-0.3,0.4-1.5,0.9-2.3,1c-0.5,0.1-1.1,0-1.5-0.1l-0.8-0.2v0.5c0,0.4,0.1,0.5,0.8,0.9
			c0.4,0.2,1.2,0.8,1.6,1.4c0.9,1,2.2,2.8,2.2,3c0,0.1,0.1,0.2,0.2,0.2c0.1,0,0.1,0.1,0,0.2c-0.1,0.1-0.1,0.3-0.1,0.4
			c0.1,0.1,0,0.2-0.1,0.3c-0.1,0.1-0.2,0.2-0.2,0.3c0,0.1-0.1,0.2-0.3,0.3C361,620.7,361,620.7,361,620.3L361,620.3z M355.1,612.9
			C355.2,612.8,355.2,612.8,355.1,612.9c-0.1,0-0.2-0.1-0.3-0.2c0-0.1-0.2-0.2-0.3-0.2c-0.1,0-0.1,0.1,0.1,0.3
			C355,613.1,355,613.1,355.1,612.9L355.1,612.9z M341.3,610.4c-0.5-0.4-1.1-1-1.5-1.4c-0.3-0.4-0.7-0.9-0.8-1s-0.2-0.3-0.2-0.4
			s-0.3-0.7-0.6-1.3c-0.5-0.9-0.6-1.1-0.9-1.1c-0.5,0.1-0.8,0.5-0.8,1.1c0,0.3,0,0.5-0.1,0.5c-0.2-0.1-1.1-2-1.3-2.8
			c-0.1-0.4-0.3-0.8-0.3-0.8c-0.2,0,0.1-2.7,0.3-3.2c0.4-0.8,0.9-1.5,1.3-1.6c0.3-0.1,0.3-0.1,0.1-0.6c-0.1-0.2-0.3-0.7-0.4-1
			c-0.2-0.5-0.2-0.5-1-0.7c-0.8-0.2-0.8-0.2-1.2,0.3c-0.2,0.2-0.5,0.7-0.7,1l-0.3,0.5l-0.6-0.3c-0.5-0.3-0.6-0.3-1,0
			c-0.3,0.2-0.5,0.3-0.5,0.4c0,0.1,0,0.2-0.1,0.3c-0.1,0.1-0.1-0.2-0.1-0.5c0-1,1.3-3,2.4-3.8c0.4-0.3,0.6-0.3,1.4-0.3
			c2.5,0.2,3.4,0.5,3.4,1.3c0,0.1,0.4,1,0.8,1.8c0.7,1.4,0.8,1.6,0.8,2.4c0,0.8,0,0.9,0.4,0.9c0.3,0,0.5,0.1,0.9,0.5
			c0.5,0.6,0.9,1.3,0.8,1.4c0,0,0,0.1,0.1,0.1c0.1,0,0.1,0.1,0,0.3c-0.1,0.2-0.1,0.3,0,0.3c0.1,0,0.1,0.1-0.1,0.2
			c-0.2,0.1-0.3,0.3-0.3,0.4c0,0.1-0.1,0.2-0.3,0.1c-0.2,0-0.3,0-0.2,0.1c0.1,0.2,0,0.2-0.7-0.2c-0.2-0.1-0.6-0.5-0.8-0.9
			c-0.2-0.4-0.5-0.7-0.5-0.7c0,0-0.3,0.2-0.5,0.5c-0.2,0.3-0.5,0.5-0.5,0.5c-0.3,0-0.4,0.1-0.4,0.4c0,0.6,0.2,0.7,0.5,0.3
			c0.4-0.4,1.2-0.4,1.5,0c0.1,0.2,0.3,0.3,0.4,0.2c0.1,0,0.1,0.1,0.1,0.2s0.3,1,0.7,1.8c0.6,1.2,0.9,1.6,1.6,2.3
			c0.5,0.4,0.9,0.8,1,0.7c0.1-0.1,0.1,0,0,0.1s-0.2,0.1-0.3,0.1c-0.1,0-0.3,0-0.4,0.1c-0.1,0.1-0.2,0.1-0.3,0.1s0,0,0.1,0.2
			c0.2,0.2,0.2,0.3,0,0.2c-0.2-0.1-0.3,1-0.1,1.3C342.4,611.2,342.2,611.1,341.3,610.4L341.3,610.4z M357.7,609.7
			c0-0.4,0-0.5,0.1-0.3s0,0.5,0,0.7C357.7,610.3,357.7,610.1,357.7,609.7z M352.2,609c-0.4-0.2-0.7-0.5-0.7-1c0-0.6,0.4-1,1.1-1.2
			c0.7-0.1,1.6,0.1,1.4,0.4c0,0.1,0,0.1,0.2,0.1c0.1-0.1,0.2,0,0.1,0.1c-0.1,0.1,0,0.2,0,0.3c0.2,0.1,0.2,0.7,0,0.7
			c-0.1,0-0.3,0.2-0.5,0.4C353.6,609,352.7,609.2,352.2,609L352.2,609z M356.4,608.2c-0.4-0.2-0.8-0.7-0.8-1.1
			c0-0.5,0.8-1.3,1.6-1.7c0.8-0.4,2.4-0.5,3-0.2c0.5,0.3,0.8,0.9,0.6,1.4c-0.2,0.6-0.5,0.7-1.4,0.7c-0.9,0-1.4,0.2-1.9,0.7
			C357,608.3,356.9,608.3,356.4,608.2z M362.6,607.4c-0.2-0.1-0.4-0.3-0.4-0.5c0-0.2-0.1-0.3-0.2-0.3s0-0.2,0.1-0.5
			c0.1-0.3,0.3-0.5,0.4-0.4s0.1,0,0.1-0.1c0-0.1,0.2-0.2,0.5-0.2c0.7,0,1.2,0.6,1.1,1.3C364.1,607.4,363.4,607.8,362.6,607.4
			L362.6,607.4z M333,602.1C332.8,601.9,332.8,601.9,333,602.1c0.3,0.1,0.4,0.3,0.3,0.3C333.2,602.4,333.1,602.2,333,602.1
			L333,602.1z M368.2,601.6c-0.2-0.1-0.4-0.2-0.4-0.2c0,0-0.1-0.1-0.1-0.2c0-0.1-0.1-0.5-0.1-0.9c-0.1-0.6-0.1-0.7,0.2-0.7
			c0.6-0.2,0.5-0.5-0.7-1.6c-1.3-1.3-1.6-1.9-1.3-3.1c0.3-1.3,0.7-1.9,1.5-1.9c0.8,0,1.2,1,0.8,2.2c-0.1,0.5-0.1,0.5,0.6,1.2
			c0.4,0.4,0.8,0.7,0.9,0.7c0.3,0,0.8,0.7,0.8,1.1c0,0.2-0.2,0.5-0.5,0.9c-0.3,0.3-0.4,0.5-0.4,0.5s0.2,0.1,0.2,0.2
			c0,0.1,0,0.2,0.1,0.2c0.1,0,0.1,0.2,0.1,0.5C369.8,601.4,369,602,368.2,601.6L368.2,601.6z M332.1,601.2
			C331.9,601,331.9,601,332.1,601.2c0.2,0.1,0.3,0.2,0.3,0.2C332.4,601.5,332.3,601.5,332.1,601.2L332.1,601.2z M367.8,592.3
			c-1.4-1.4-2.5-2-3.3-1.9c-0.5,0.1-0.5,0.1-0.3-0.2c0.3-0.3,0.2-1.2-0.1-1.5c-0.1-0.1-0.1-0.1-0.1,0c0.1,0.1,0.1,0.2-0.1,0.1
			c-0.1-0.1-0.2-0.2-0.2-0.3c0-0.2,0-0.2-0.1-0.1c-0.1,0.2-0.1,0.2-0.2,0c-0.1-0.4,1.1-0.5,2.2-0.2c1.4,0.4,2.4,1,3.7,2.4
			c1.1,1.2,1.2,1.4,1.2,1.8c0,0.6-0.5,1-1.1,1C369.1,593.5,368.8,593.3,367.8,592.3L367.8,592.3z M365.3,593.2c0,0,0.1-0.1,0.3-0.3
			c0.2-0.2,0.2-0.2,0.1,0.1C365.4,593.2,365.3,593.3,365.3,593.2z M311.1,520.5C311.1,520.3,311.2,520.3,311.1,520.5
			c0.1,0,0.1,0.1,0.1,0.2C311.1,520.7,311.1,520.7,311.1,520.5L311.1,520.5z"/>
		<path id="path1049" class="st5" d="M356.4,628.5c-0.6-0.2-1.8-0.6-2.6-0.9c-0.8-0.3-1.6-0.5-1.7-0.5s-0.3-0.2-0.4-0.3
			c-0.2-0.4-0.3-1.3-0.1-1.2c0.1,0,0.2-0.1,0.3-0.3c0.2-0.3,0.4-0.3,1.4-0.3c0.6,0,1.1,0,1.1,0.1c0,0.1,0,0.1,0.2,0.1
			c0.3,0,4.1,1.2,4.4,1.4c0.2,0.1,0.1,0.2-0.1,0.3c-0.3,0.1-0.3,0.1-0.2,0c0.1-0.1,0,0-0.2,0.2c-0.3,0.4-0.4,1.2-0.2,1.2
			c0.1,0,0.1,0.1,0,0.1c0,0.1,0,0.1,0.1,0.1c0.1,0,0.2,0,0.3,0.1C358.8,629,357.8,628.9,356.4,628.5L356.4,628.5z M363.3,626.5
			c-0.2-0.1-0.3-0.3-0.3-0.5c0-0.4-0.9-2.2-1.8-3.7c-0.9-1.4-0.9-1.5-0.1-1.7c0.5-0.1,0.7-0.2,0.6-0.4c0-0.1,0-0.2,0.1-0.2
			c0.1-0.1,0.2-0.2,0.1-0.3c-0.2-0.5,0.2-0.4,0.7,0.2c0.6,0.8,1.8,2.7,2,3.4c0.4,1,0.6,2.3,0.4,2.7c-0.1,0.2-0.2,0.3-0.3,0.3
			s-0.1,0-0.1,0c0,0.1-0.1,0.1-0.3,0.1c-0.1,0-0.4,0-0.5,0.1C363.8,626.7,363.5,626.6,363.3,626.5L363.3,626.5z M348.1,623.6
			c-0.1-0.6-0.3-1.1-0.5-1c-0.1,0-0.2-0.1-0.3-0.2c-0.1-0.3-0.2-0.3-0.5-0.2l-0.4,0.1l0.4-0.3c0.7-0.6,3.7-2.8,4.6-3.3
			c0.8-0.4,1-0.5,1.4-0.4c0.3,0.1,0.5,0.2,0.4,0.3c0,0.1,0,0.2,0.1,0.2c0.1,0,0.1,0.1,0.1,0.2c0,0.1,0,0.2,0.1,0.2
			c0.1,0,0.1,0.2,0.1,0.4c0,0.2-0.2,0.5-0.5,0.7c-0.3,0.2-0.7,0.6-1.1,0.8c-1,0.9-3.6,2.8-3.9,2.8
			C348.1,623.8,348.1,623.7,348.1,623.6L348.1,623.6z M358.2,619.5c0.1-0.2,0.2-0.3,0.2-0.3c0,0,0,0.1-0.1,0.3
			c-0.1,0.2-0.2,0.3-0.2,0.3S358.1,619.6,358.2,619.5z M359.4,619c0-0.2,0-0.3,0.1-0.2c0,0.1,0,0.3,0,0.4
			C359.4,619.3,359.4,619.2,359.4,619L359.4,619z M354.7,612.8c-0.2-0.2-0.2-0.3-0.1-0.3c0.1,0,0.2,0.1,0.3,0.2
			c0,0.1,0.2,0.2,0.2,0.1c0.1-0.1,0.1,0,0,0.1C355,613.1,355,613.1,354.7,612.8L354.7,612.8z M343.5,611.5c-1.3-0.5-1.4-0.6-1.4-1.3
			c0-0.4,0.1-0.6,0.2-0.6c0.2,0,0.2,0,0-0.2c-0.1-0.1-0.1-0.2-0.1-0.2c0.1,0.1,0.3,0,0.5-0.1c0.5-0.3,0.9-0.1,1,0.6
			c0.1,0.3,0.4,0.8,0.7,1.2C345.3,611.9,345,612,343.5,611.5L343.5,611.5z M356.7,610.7c-0.3-0.1-0.8-0.1-1.1-0.1l-0.5,0.1l0.1-0.7
			l0.1-0.7l-0.6-0.2c-0.3-0.1-0.6-0.2-0.7-0.2c-0.3,0,0.1-0.6,0.4-0.7c0.3-0.1,0.3-0.6,0.1-0.7c-0.1-0.1-0.1-0.2,0-0.3
			c0.1-0.1,0-0.1-0.1-0.1c-0.2,0.1-0.2,0-0.2-0.1c0-0.1-0.1-0.2-0.3-0.3c-0.4-0.1-0.4-0.1,0.3-0.2c1.1-0.1,1.5,0,1.5,0.4
			c0,0.7,1,1.4,1.6,1.1c0.4-0.2,0.4,0.1,0.4,1.6C357.6,611,357.7,611,356.7,610.7L356.7,610.7z M350.6,609.7
			c-0.4-0.3-0.9-0.6-1.3-0.7c-0.3-0.1-0.7-0.3-0.9-0.4l-0.3-0.3l-0.3,0.8c-0.2,0.4-0.4,0.8-0.4,0.9c-0.1,0.1-1-0.3-1.2-0.6
			c-0.3-0.4-0.1-1.6,0.3-1.7c0.2-0.1,0.5-0.4,0.6-0.6c0.3-0.6,0.4-0.7,0.2-0.6c-0.1,0-0.1,0-0.1-0.2c0-0.4,0.1-0.4,0.4,0.2
			c0.3,0.5,0.3,0.5,0.6,0.2c0.5-0.4,0.8-0.5,1.4-0.3c0.7,0.2,1.8,1.1,1.9,1.6c0,0.2,0.1,0.5,0.2,0.7c0.2,0.4,0.1,1.3-0.2,1.5
			C351.4,610.2,351.1,610.1,350.6,609.7L350.6,609.7z M362.9,610.2c-0.2,0-0.5-0.2-0.9-0.5c-0.3-0.2-0.7-0.4-0.8-0.4
			c-0.1,0-0.5-0.3-0.8-0.6c-0.7-0.7-1.4-1-2-1c-0.2,0-0.4-0.1-0.4-0.1c0-0.2,0.5-0.3,1.3-0.3c0.4,0,0.8,0,0.9-0.1
			c0.3-0.1,0.7-0.9,0.6-1.2c-0.1-0.2,0-0.3,0.1-0.2c0.5,0.3,1.1,0.9,1.2,1.2c0.1,0.2,0.3,0.4,0.5,0.5s0.5,0.4,0.6,0.6
			C363.8,608.8,363.5,610.3,362.9,610.2L362.9,610.2z M366.4,610c-0.1-0.2,0.2-0.3,1-0.1c0.5,0.1,0.5,0.2-0.3,0.2
			C366.7,610.2,366.5,610.1,366.4,610L366.4,610z M337.8,607.5c-0.3-0.1-0.7-0.3-0.9-0.5c-0.6-0.6-0.3-1.7,0.5-1.9
			c0.2,0,0.4,0.1,0.9,1.1c0.3,0.6,0.6,1.2,0.6,1.3C338.8,607.7,338.5,607.7,337.8,607.5L337.8,607.5z M366.6,607.4
			c-0.7-0.1-1.5-0.2-1.8-0.3c-0.5-0.1-0.6-0.2-0.6-0.6c0-0.6-0.5-1.1-1.1-1.1c-0.3,0-0.5,0.1-0.5,0.2c0,0.1,0,0.1-0.1,0.1
			c-0.1-0.1,0.5-0.8,1-1.1c0.6-0.3,1.5-0.3,2,0.1c0.2,0.2,0.5,0.3,0.7,0.3c0.4,0,2,1.2,2.2,1.8c0.2,0.4,0.2,0.5,0,0.6
			c-0.1,0.1-0.3,0.2-0.3,0.2C367.9,607.5,367.3,607.5,366.6,607.4L366.6,607.4z M340.6,605.7c-0.5-1.1-0.9-2.4-0.6-2.3
			c0.1,0,0.2,0.1,0.4,0.2c0.3,0.2,0.6,0.3,0.4,0.1c-0.1-0.1,0-0.1,0.2-0.1c0.2,0,0.3,0,0.3-0.1c0-0.1,0.1-0.3,0.3-0.3
			c0.2-0.1,0.2-0.2,0.2-0.3c-0.1-0.1-0.1-0.2,0-0.3c0.2-0.3,0.7,0.7,0.8,1.5c0.1,0.5,0,0.6-0.3,0.6c-0.2,0-0.5,0.2-0.6,0.4
			c-0.3,0.4-0.3,1.1,0,1.4c0.1,0.1,0.1,0.2,0,0.4c-0.1,0.1-0.2,0.2-0.3,0.2C341.2,607,340.9,606.4,340.6,605.7L340.6,605.7z
			 M370.5,606c-0.2-0.3-0.2-0.4-0.1-0.4c0.1,0,0.5-0.1,0.8-0.2c0.4-0.1,0.8-0.3,1-0.5l0.3-0.3l0,0.4c0,0.2-0.1,0.6-0.3,0.9
			c-0.2,0.5-0.3,0.5-0.9,0.5C370.9,606.4,370.7,606.3,370.5,606L370.5,606z M368.3,603.4c0.1-0.2,0-0.3-0.1-0.4
			c-0.1-0.1-0.1-0.2-0.1-0.3c0-0.1,0-0.2,0-0.1c-0.1,0.1-0.2,0-0.4-0.1c-0.2-0.1-0.4-0.2-0.6-0.2c-0.3,0-0.2-0.1,0.2-0.4
			c0.4-0.4,0.5-0.4,0.9-0.2c0.5,0.3,1.1,0.1,1.4-0.3c0.3-0.4,0.7-0.4,1.5,0.2c0.6,0.4,0.6,0.6,0.1,1.2c-0.3,0.4-0.6,0.5-1.3,0.7
			c-0.5,0.1-1.1,0.2-1.3,0.3C368.2,603.7,368.2,603.6,368.3,603.4L368.3,603.4z M334,602.8c-0.7-0.4-2.2-1.9-2.7-2.8
			c-0.4-0.7-0.5-1.3-0.5-1.6c0-0.1,0-0.2,0.1-0.3c0-0.1,0.2-0.3,0.5-0.4c0.5-0.3,0.5-0.3,1,0c0.3,0.1,0.6,0.4,0.6,0.5
			c0,0.1,0.5,0.7,1,1.2l0.9,0.9l-0.1,1.4c0,0.8-0.1,1.4-0.2,1.4C334.6,603.1,334.3,602.9,334,602.8L334,602.8z M337.3,603
			c0,0,0.1-0.1,0.2-0.1c0.1,0,0.2,0,0.1,0.1C337.6,603.1,337.3,603.1,337.3,603z M372.6,600.6c-0.1-0.1-0.1-0.2,0.2-0.3
			c0.2-0.1,0.6-0.6,0.9-1.1l0.5-1l0.2,0.7c0.2,0.8,0.2,1.3,0,1.3c-0.1,0-0.1,0-0.1,0.1C374.5,600.6,373,600.9,372.6,600.6
			L372.6,600.6z M369.7,599.7c0-0.1-0.1-0.2-0.2-0.2c-0.1,0,0.1-0.2,0.4-0.5c0.6-0.6,0.7-1,0.2-1.6l-0.3-0.4l0.3-0.1
			c0.2,0,0.6-0.1,1-0.1c0.6,0,0.7,0,0.7,0.4c0,0.2-0.1,0.6-0.3,0.9c-0.2,0.3-0.3,0.7-0.3,0.9c0,0.3-0.1,0.4-0.3,0.4
			c-0.2,0-0.5,0.1-0.7,0.2C369.8,599.9,369.7,599.9,369.7,599.7L369.7,599.7z M367.6,599.1c0-0.5,0-0.5,0.3-0.3
			c0.3,0.2,0.4,0.4,0.1,0.7C367.8,599.7,367.6,599.6,367.6,599.1L367.6,599.1z M335.8,598.7c0.1-0.2,0.3-0.3,0.3-0.3s0,0.1-0.2,0.3
			s-0.3,0.3-0.3,0.3C335.6,599,335.7,598.9,335.8,598.7z M365.3,595.5c-0.4-0.5-0.5-1.4-0.2-1.9c0.1-0.1,0.1-0.3,0-0.4
			c-0.1-0.2-0.1-0.2,0.1,0c0.2,0.1,0.3,0.1,0.6-0.3c0.2-0.2,0.7-0.5,1.1-0.6l0.7-0.2l0.8,0.7c0.5,0.5,0.9,0.7,1.2,0.7
			c0.5,0,1.1-0.4,1.1-0.7c0-0.4,0.2-0.5,0.6-0.2c0.2,0.2,0.2,0.3,0.1,0.4c-0.1,0.1-0.1,0.3-0.1,0.5c0,0.3,0,0.4-0.1,0.4
			c-0.1,0-0.2,0.1-0.3,0.2c-0.1,0.2-0.2,0.3-0.7,0.2c-0.3,0-0.9,0-1.2,0.1l-0.7,0.1v-0.5c0-0.9-0.9-1.5-1.7-0.9
			c-0.4,0.3-0.8,1.3-0.8,2.2c0,0.4,0,0.7,0,0.7C365.7,596,365.5,595.8,365.3,595.5L365.3,595.5z M337,593.7c0-0.3,0.1-0.5,0.1-0.5
			c0,0,0.1,0.2,0.1,0.5s-0.1,0.5-0.1,0.5S337,594,337,593.7z M335.2,593.7c0-0.1-0.1-0.4,0-0.5c0-0.2,0.1-0.2,0.1,0.2
			C335.4,594,335.4,594.1,335.2,593.7L335.2,593.7z M337.1,592.8C337.1,592.7,337.1,592.6,337.1,592.8c0.1,0,0.1,0.1,0.1,0.2
			S337.1,593,337.1,592.8L337.1,592.8z M361.6,591.9c-0.7-0.4-0.9-1.4-0.5-2.2c0.2-0.3,0.6-0.6,1.2-0.9c1-0.5,1.3-0.6,1.3-0.3
			c0,0.1,0,0.1,0.1,0c0.1-0.2,0.1-0.2,0.1,0c0,0.1,0.1,0.3,0.2,0.3c0.1,0.1,0.1,0,0.1-0.1c-0.1-0.2-0.1-0.2,0.1,0
			c0.1,0.1,0.2,0.5,0.2,0.8c0,0.5,0,0.7-0.4,0.9c-0.3,0.2-0.5,0.5-0.6,0.7c-0.1,0.4-0.8,1-1.2,1C362,592.1,361.8,592,361.6,591.9
			L361.6,591.9z M335.1,590.6c0-0.2,0-0.3,0.1-0.2s0,0.3,0,0.4S335.1,590.8,335.1,590.6L335.1,590.6z M336.9,590.2
			C336.9,590.1,337,590,336.9,590.2c0.1,0,0.1,0.1,0.1,0.2S336.9,590.4,336.9,590.2L336.9,590.2z M360,587.9c0-0.2,0-0.3,0.1-0.2
			c0,0.1,0,0.3,0,0.4C360,588.3,360,588.2,360,587.9L360,587.9z M361.9,587.6c0-0.2,0-0.3,0.1-0.2c0,0.1,0,0.3,0,0.4
			C361.9,588,361.9,587.9,361.9,587.6L361.9,587.6z M360,587.2C360,587,360,587,360,587.2c0.1,0,0.1,0.1,0.1,0.2
			S360,587.3,360,587.2L360,587.2z M369.1,586.7c0.1,0,0.3,0,0.4,0c0.1,0,0,0.1-0.2,0.1C369,586.8,369,586.8,369.1,586.7z
			 M369.1,584.9c0.1,0,0.2,0,0.3,0C369.4,584.9,369.3,585,369.1,584.9C369,584.9,369,584.9,369.1,584.9L369.1,584.9z M366.5,584.7
			c0.1,0,0.2,0,0.3,0C366.8,584.8,366.7,584.8,366.5,584.7C366.4,584.8,366.3,584.8,366.5,584.7L366.5,584.7z M328.5,583.3
			c0.1,0,0.3,0,0.4,0c0.1,0,0,0.1-0.2,0.1C328.4,583.3,328.4,583.3,328.5,583.3z M361.5,582.8c0.1,0,0.2,0,0.3,0
			C361.9,582.9,361.8,582.9,361.5,582.8C361.4,582.9,361.4,582.9,361.5,582.8L361.5,582.8z M326,566.9l-0.3-0.3L326,566.9
			c0.4,0.2,0.4,0.3,0.3,0.3C326.3,567.3,326.1,567.1,326,566.9L326,566.9z M301.8,565c0.2-0.2,0.4-0.4,0.4-0.4c0,0-0.1,0.2-0.3,0.4
			c-0.2,0.2-0.4,0.4-0.4,0.4S301.6,565.2,301.8,565z M379.7,563.7c0,0,0.1-0.1,0.3-0.3c0.2-0.2,0.2-0.2,0.1,0.1
			C379.8,563.8,379.7,563.9,379.7,563.7z M304.9,560l-0.3-0.3L304.9,560c0.4,0.2,0.4,0.3,0.3,0.3C305.2,560.3,305.1,560.2,304.9,560
			L304.9,560z M308.5,557.7c0.1,0,0.2,0,0.3,0C308.8,557.8,308.7,557.8,308.5,557.7C308.4,557.8,308.4,557.8,308.5,557.7
			L308.5,557.7z M294.1,554.6c0.1,0,0.3,0,0.4,0c0.1,0,0,0.1-0.2,0.1S294,554.6,294.1,554.6z M373.3,549.9c0.1,0,0.2,0,0.3,0
			C373.6,550,373.5,550,373.3,549.9C373.2,550,373.2,550,373.3,549.9L373.3,549.9z M378,549.6c0.1,0,0.3,0,0.4,0
			c0.1,0,0,0.1-0.3,0.1C377.9,549.7,377.8,549.7,378,549.6L378,549.6z M378.8,549.6c0.1,0,0.3,0,0.4,0c0.1,0,0,0.1-0.2,0.1
			C378.8,549.7,378.7,549.7,378.8,549.6z M380.8,549.6c0.1,0,0.3,0,0.4,0c0.1,0,0,0.1-0.2,0.1C380.8,549.7,380.7,549.7,380.8,549.6z
			 M383.6,549.6c0.1,0,0.3,0,0.4,0c0.1,0,0,0.1-0.3,0.1C383.6,549.7,383.5,549.7,383.6,549.6L383.6,549.6z M384.4,549.6
			c0.1,0,0.3,0,0.4,0c0.1,0,0,0.1-0.2,0.1S384.3,549.7,384.4,549.6z M386.5,549.6c0.1,0,0.3,0,0.4,0c0.1,0,0,0.1-0.2,0.1
			C386.4,549.7,386.4,549.7,386.5,549.6L386.5,549.6z M388.2,549.6c0.2,0,0.4,0,0.6,0c0.1,0,0,0.1-0.3,0.1
			C388.1,549.7,388,549.7,388.2,549.6L388.2,549.6z M351,548.4c0,0,0.1-0.1,0.3-0.3c0.2-0.2,0.2-0.2,0.1,0.1
			C351.1,548.4,351,548.5,351,548.4L351,548.4z M319.8,546.2C319.8,546,319.9,546,319.8,546.2c0.1,0,0.1,0.1,0.1,0.2
			S319.8,546.3,319.8,546.2L319.8,546.2z M344.5,545C344.5,544.8,344.5,544.8,344.5,545c0.1,0,0.1,0.1,0.1,0.2
			S344.5,545.2,344.5,545L344.5,545z M344.3,542.5C344.3,542.4,344.4,542.3,344.3,542.5c0.1,0,0.1,0.1,0.1,0.2
			C344.3,542.8,344.3,542.7,344.3,542.5L344.3,542.5z M346.2,542.3c0-0.2,0-0.3,0.1-0.2c0,0.1,0,0.3,0,0.4
			C346.2,542.6,346.2,542.5,346.2,542.3L346.2,542.3z M323,542c0-0.2,0-0.3,0.1-0.2c0,0.1,0,0.3,0,0.4
			C323.1,542.3,323,542.2,323,542L323,542z M346.2,541.7C346.2,541.5,346.2,541.5,346.2,541.7c0.1,0,0.1,0.1,0.1,0.2
			S346.2,541.8,346.2,541.7L346.2,541.7z M344.3,541.5C344.3,541.4,344.4,541.3,344.3,541.5c0.1,0,0.1,0.1,0.1,0.2
			C344.3,541.8,344.3,541.7,344.3,541.5L344.3,541.5z M318.4,535.1c0.1,0,0.3,0,0.4,0c0.1,0,0,0.1-0.3,0.1
			C318.3,535.2,318.3,535.2,318.4,535.1L318.4,535.1z M320,533.5c0-0.2,0-0.3,0.1-0.2s0,0.3,0,0.4C320,533.8,320,533.7,320,533.5
			L320,533.5z M322.8,532.4C322.7,532.1,322.7,532.1,322.8,532.4c0.3,0.1,0.4,0.3,0.3,0.3C323.1,532.6,322.9,532.5,322.8,532.4
			L322.8,532.4z M324.3,531.1l-0.4-0.4L324.3,531.1c0.4,0.3,0.5,0.4,0.4,0.4C324.7,531.5,324.5,531.3,324.3,531.1z M311.7,528.5
			c0.1,0,0.2,0,0.3,0C312,528.5,311.9,528.6,311.7,528.5C311.6,528.5,311.5,528.5,311.7,528.5L311.7,528.5z M310.7,527.9l-0.3-0.3
			L310.7,527.9c0.2,0.1,0.4,0.2,0.4,0.3C311.1,528.3,311,528.3,310.7,527.9z M312.7,525.2c0-0.3,0-0.4,0.1-0.3c0,0.2,0,0.4,0,0.6
			C312.8,525.6,312.7,525.5,312.7,525.2L312.7,525.2z M366.4,524.6c0-0.2,0-0.3,0.1-0.2c0,0.1,0,0.3,0,0.4
			C366.4,524.9,366.4,524.8,366.4,524.6L366.4,524.6z M327.5,524.4c0-0.2,0-0.3,0.1-0.2c0,0.1,0,0.3,0,0.4
			C327.5,524.6,327.5,524.6,327.5,524.4L327.5,524.4z M327.5,523.3c0-0.4,0-0.5,0.1-0.3c0,0.2,0,0.5,0,0.7
			C327.6,523.8,327.5,523.7,327.5,523.3L327.5,523.3z M297.5,523.5C297.5,523.4,297.5,523.3,297.5,523.5c0.1,0,0.1,0.1,0.1,0.2
			S297.5,523.7,297.5,523.5L297.5,523.5z M366.2,523C366.2,522.8,366.2,522.8,366.2,523c0.1,0,0.1,0.1,0.1,0.2
			S366.2,523.1,366.2,523L366.2,523z M311.2,521.5c0-0.5,0-0.7,0.1-0.4c0,0.3,0,0.7,0,0.9C311.2,522.2,311.2,522,311.2,521.5
			L311.2,521.5z M297.4,521.2c0-0.4,0-0.5,0.1-0.3c0,0.2,0,0.5,0,0.7C297.4,521.8,297.4,521.6,297.4,521.2L297.4,521.2z
			 M299.3,520.8c0-0.3,0-0.4,0.1-0.3c0,0.2,0,0.4,0,0.6C299.3,521.3,299.3,521.1,299.3,520.8L299.3,520.8z M313,520.7
			c0-0.2,0-0.3,0.1-0.2c0,0.1,0,0.3,0,0.4C313,521,313,520.9,313,520.7L313,520.7z M297.4,519.4c0-0.4,0-0.6,0.1-0.4
			c0,0.2,0,0.6,0,0.8C297.4,520,297.4,519.9,297.4,519.4z M313,519.9c0-0.2,0-0.3,0.1-0.2c0,0.1,0,0.3,0,0.4S313,520.1,313,519.9
			L313,519.9z M338.4,519.9c0.1,0,0.3,0,0.4,0c0.1,0,0,0.1-0.3,0.1C338.3,520,338.3,519.9,338.4,519.9L338.4,519.9z M299.2,519.4
			c0-0.2,0-0.3,0.1-0.2c0,0.1,0,0.3,0,0.4C299.3,519.7,299.2,519.6,299.2,519.4L299.2,519.4z M311.1,519.5
			C311.1,519.3,311.2,519.3,311.1,519.5c0.1,0,0.1,0.1,0.1,0.2C311.1,519.7,311.1,519.6,311.1,519.5L311.1,519.5z M370.9,514.5
			c0-0.7,0-1,0.1-0.6c0,0.3,0,0.9,0,1.2C370.9,515.5,370.9,515.2,370.9,514.5L370.9,514.5z M366.6,510.3c0,0,0.2-0.2,0.5-0.5
			l0.5-0.4l-0.4,0.5C366.8,510.3,366.6,510.4,366.6,510.3z M307.6,508c0.1,0,0.2,0,0.3,0C307.9,508.1,307.8,508.1,307.6,508
			C307.5,508.1,307.5,508.1,307.6,508L307.6,508z M363.3,507.5c0,0,0.1-0.1,0.3-0.3c0.2-0.2,0.2-0.2,0.1,0.1
			C363.4,507.5,363.3,507.6,363.3,507.5z M321.4,506.9l-0.4-0.4L321.4,506.9c0.4,0.3,0.5,0.4,0.4,0.4
			C321.8,507.3,321.6,507.1,321.4,506.9z M361.4,506.7c0.2-0.2,0.4-0.4,0.4-0.4c0,0-0.1,0.2-0.3,0.4c-0.2,0.2-0.4,0.4-0.4,0.4
			S361.2,506.9,361.4,506.7z M373.2,502.9l-0.3-0.3L373.2,502.9c0.4,0.2,0.4,0.3,0.3,0.3C373.5,503.2,373.4,503,373.2,502.9z
			 M375.6,502.6l-0.4-0.4L375.6,502.6c0.3,0.1,0.4,0.3,0.4,0.4C376.1,503.1,375.9,503,375.6,502.6z M309.6,500.9c0.1,0,0.2,0,0.3,0
			S309.9,501,309.6,500.9C309.5,501,309.5,501,309.6,500.9L309.6,500.9z M309.9,499c0.1,0,0.2,0,0.3,0
			C310.2,499.1,310.2,499.1,309.9,499C309.8,499.1,309.8,499.1,309.9,499L309.9,499z"/>
		<path id="path1047" class="st6" d="M354,624.9c-1.1-0.3-1.7-1.7-1.2-3.1c0.4-1.2,0.8-1.5,2.2-1.5c1.7,0,3.4,1,3.4,2.1
			c0,0.6-0.8,2-1.4,2.4c-0.4,0.3-0.7,0.3-1.4,0.3C355,625.1,354.3,625,354,624.9L354,624.9z M356.7,623.8c1-1.1,1.1-1.6,0.4-2.1
			c-0.6-0.5-1.6-0.7-2.4-0.6c-1,0.1-1.1,0.4-0.9,1.8c0.2,1.3,0.1,1.2,1.6,1.3C356.2,624.2,356.3,624.2,356.7,623.8L356.7,623.8z
			 M358.2,621.1c-0.4-0.1-0.5-0.7,0-1.3c0.2-0.3,0.4-0.7,0.4-0.8c0-0.1-0.1,0-0.2,0.3c-0.3,0.6-0.7,0.6-0.8-0.1
			c-0.1-1,1.3-1.8,1.7-1.1c0.2,0.3,0.2,1.6,0.1,1.9c-0.1,0.2,0.2,0.2,0.7,0c0.5-0.2,1,0,0.9,0.3c0,0.2-0.2,0.4-0.6,0.5
			C359.8,621,358.6,621.2,358.2,621.1L358.2,621.1z M334.7,600c-0.2-0.3-0.2-0.3,0.1-1.5c0.2-0.7,0.3-1.4,0.3-1.6
			c0-0.2,0.1-0.4,0.1-0.5c0.2-0.3,0.9-0.1,0.9,0.2c0,0.1,0.2,0.5,0.3,0.9c0.2,0.5,0.3,0.7,0.2,0.7c-0.3,0-0.9,0.6-1.3,1.3
			C334.9,600.3,334.9,600.3,334.7,600L334.7,600z M351.4,598c-0.4-0.4-0.4-0.7,0.1-1.6c0.7-1.4,1-4.2,0.6-6.3
			c-0.6-3.6-2-6.6-4.1-8.9c-0.3-0.3-0.7-0.9-0.9-1.3c-0.2-0.4-0.3-0.7-0.3-0.7c0,0-1.3,0.4-2.9,1c-3.8,1.3-9.9,2.8-11.7,2.8
			c-0.2,0-0.4,0.1-0.5,0.1c0,0.1,0.1,0.1,0.2,0.1c0.6,0,2.4,1,3,1.6c1.3,1.3,1.8,3.2,2,6.9l0.1,2.4l-0.8-0.1
			c-0.4-0.1-0.8-0.1-0.9-0.2c-0.1-0.1-0.2-1.1-0.3-2.2c-0.2-3.2-0.5-4.5-1.4-5.4c-0.5-0.6-1.9-1.2-2.9-1.3c-0.4-0.1-0.9-0.2-1.1-0.2
			c-0.4-0.2-0.5-0.7-0.4-1.1c0.1-0.3,0.1-0.3-0.6-0.3c-0.4,0-3,0.1-5.8,0.2c-5.6,0.1-6,0.1-8.6-0.7c-3.1-0.9-4.7-2.4-5.4-5
			c-0.4-1.3-0.4-3.2-0.1-4.6c0.2-1.1,2.1-6.2,3.4-9.5c0.5-1.2,1.4-3.5,2-5.1c1.5-3.9,3.9-8.8,5.1-10.4c0.5-0.7,1-1.5,1-1.8
			c0.1-0.3,0.2-0.9,0.3-1.3c0.1-0.4,0.3-1.4,0.3-2.1c0.1-1.1,0.1-1.3-0.2-1.6c-0.2-0.2-0.3-0.6-0.4-1.8c0-0.9-0.1-1.6-0.2-1.7
			c-0.3-0.5-1.9-0.8-2.8-0.5c-0.4,0.1-0.9,1.1-1.3,2.2c-0.2,0.6-0.2,1.1-0.2,2c0.1,1.3,0.4,2.2,1.1,3.2c0.4,0.5,0.4,0.5,1.2,0.5
			c1,0,1.5,0.3,1.5,0.9c0,0.6-0.3,0.9-1.3,1c-1.1,0.1-1.8-0.1-2.5-0.9c-1.2-1.3-1.9-3.2-1.9-5.4c0-1.3,0.3-2.3,1-3.8
			c0.8-1.5,1.6-2,3.6-1.9l1.3,0.1v-0.7c0-0.4-0.1-1.9-0.2-3.3c-0.2-2.4-0.3-3.5-0.6-4.7c-0.2-1,0.7-1.8,1.4-1.3
			c0.2,0.1,0.5,0.7,0.7,1.3c1.4,3.6,4.1,6.3,7.2,7.1c0.5,0.1,1,0.2,1,0.2c0,0-0.2-0.4-0.4-0.9c-1.3-2.9-2.1-8.8-1.5-11.5
			c0.3-1.8,0.2-2.6-1.2-6.3c-0.3-0.8-2.5-4.5-3.8-6.6c-1.6-2.4-3.5-4-7.1-5.8c-1.3-0.7-3.8-1.5-5.2-1.7c-1.2-0.2-3.9-0.2-4.4,0
			c-0.9,0.4-1.6,1.3-3.2,4.4c-1.3,2.6-1.7,3.6-2.3,5.6c-0.2,0.8-0.5,1.9-0.7,2.5c-0.2,0.9-0.4,2.2-0.6,6.2c-0.1,1.3,0.2,4.4,0.5,6.7
			c0.9,6.1,2.6,12.3,5.1,18.6c0.4,1.1,1.1,3,1.5,4.3c1.3,4,2.3,6.4,2.7,6.9c0.5,0.5,0.5,0.8,0.2,1.2c-0.2,0.3-0.4,0.3-4.1,0.2
			l-3.9,0l0.8,0.4c1.2,0.7,2.5,1.7,3.1,2.3c1,1.1,0.7,1.9-0.8,2.7c-1.1,0.5-2.2,1.6-3.3,3c-1.2,1.5-1.2,1.6-2.1,3.6
			c-1.2,2.7-2.2,5.8-3.2,10c-0.2,0.9-0.7,2.8-1.1,4.1c-0.9,3.4-2,8.9-1.7,8.8c1.5-0.7,2.8-1.3,5.4-2.7c2.1-1.1,3-1.6,7.2-3.5
			c1.4-0.6,2.8-1.3,3.1-1.4c0.9-0.4,3.3-1.3,4.6-1.6c1.4-0.3,1.9-0.2,2.1,0.3c0.2,0.6-0.2,1.2-1,1.3c-1.3,0.2-3.5,1-6.3,2.3
			c-1.6,0.8-3.6,1.7-4.4,2c-0.8,0.4-2.6,1.3-4,2c-3.8,2.1-6.4,3.3-6.9,3.3c-1,0-1.7-0.7-1.7-1.9c0-1.2,1.1-6.5,2.2-10.8
			c0.4-1.7,1.1-4,1.4-5.3c1.5-5.6,3-9.2,5-11.7c1.4-1.7,2.3-2.6,3.3-3.2l0.7-0.4l-1.1-0.8c-2-1.5-5.2-2.4-7.9-2.4
			c-1.3,0-1.6,0-2.2-0.3c-0.5-0.3-0.7-0.5-0.9-1c-0.4-0.8-0.2-1.7,0.4-2c0.4-0.2,2.5-0.2,4,0.2c0.6,0.1,1.4,0.3,2,0.3
			c0.5,0.1,1.5,0.2,2.2,0.3c1.1,0.2,6.7,0.3,6.7,0.1c0,0-0.4-1.1-0.9-2.4c-0.5-1.3-1-3-1.3-3.7c-0.2-0.7-0.7-2.2-1.2-3.3
			c-1.9-4.8-3.8-11.1-4.6-15.4c-0.4-2.2-1-6-1.2-7.4c-0.3-3.3,0-8.7,0.6-10.7c0.2-0.8,0.5-1.9,0.7-2.6c0.5-1.7,1.1-3.2,2.4-5.8
			c1.9-3.6,2.6-4.5,4.2-5.1c0.8-0.3,3.1-0.4,5.1-0.1c1.6,0.2,4.4,1.1,6.2,2c3.6,1.9,5.8,3.7,7.7,6.5c2,2.9,3.8,6.3,4.3,7.8
			c0.3,0.8,0.5,1.4,0.6,1.4c0.1,0,1.2-1.6,1.6-2.4c0.4-0.8,0.8-1.2,1.3-1.2c0.6,0,1,0.4,0.8,1c-0.3,1.5-0.3,1.6,0.4,2.8
			c0.7,1.1,1.3,1.7,2.5,2.3c1,0.5,1.3,0.6,4.1,0.7c1.5,0.1,3.5,0.3,4.4,0.4c1,0.2,2.2,0.3,2.7,0.4c1.1,0.1,1.4,0.4,1.4,0.9
			c0,0.8-0.3,1-1.5,0.9c-0.6,0-1.9-0.2-2.9-0.3c-1-0.2-2-0.3-2.2-0.4s-1.2-0.1-2.2-0.1c-2.4,0-3.6-0.3-4.9-0.9
			c-1.3-0.7-2.3-1.6-3-2.7c-0.3-0.5-0.6-0.8-0.7-0.8c-0.1,0-0.4,0.4-0.7,0.9c-0.5,0.8-0.5,1-0.6,2.2c0,0.8-0.2,1.4-0.3,1.5
			c-0.5,0.5,0,5.5,0.7,8.1c0.4,1.4,1.2,3.3,1.6,3.8c0.1,0.1,0.4,0.2,0.6,0.3c1,0.2,1.4,1.1,0.8,1.7c-0.5,0.5-1.9,0.3-4.9-0.4
			c-2.3-0.6-3.5-1.2-5.5-3.1l-1.2-1.2l0.1,1.6c0.2,3,0.3,4.5,0.7,5.8c0.3,1.1,0.4,1.6,0.4,3c0,0.9,0,1.9-0.1,2
			c-0.1,0.3-0.1,0.3,0.4-0.1c1.7-1.4,3.9-1.6,3.9-0.4c0,0.6-0.3,0.9-1,1.1c-1.3,0.4-1.9,0.9-3.4,2.7c-1.9,2.3-2.3,2.8-3.4,5
			c-1.2,2.3-2.3,4.8-3.3,7.4c-0.4,1.1-0.9,2.4-1.1,2.8c-0.2,0.4-0.3,0.8-0.3,0.8c0,0,0.4-0.1,0.8-0.2c1.3-0.4,3.2-0.3,4.7,0.2
			c0.7,0.2,1.7,0.6,2.1,0.8c0.9,0.5,5.7,4.9,6.4,5.9c1,1.5,1.6,3.4,1.5,5.2c-0.1,1.3-0.3,1.9-2.1,5.1c-0.4,0.8-0.8,1.5-0.7,1.5
			c0.1,0.1,4.3-0.3,6.5-0.7c7.4-1.2,15.9-4.4,22.7-8.4c3.5-2.1,6.1-3.2,7.7-3.2c0.6,0,1,0.3,1,0.9c0,0.7-0.3,0.9-1.7,1.2
			c-1.5,0.3-3.8,1.4-6.4,3c-1.7,1-6.2,3.3-7.7,3.9c-0.5,0.2-0.9,0.4-0.9,0.5c0,0.3,0.5,1.1,1.6,2.3c2.2,2.6,3.9,7.4,4,10.8l0,1
			l0.6-1.2c0.3-0.6,1.1-2.3,1.6-3.8c1.4-3.5,1.7-4.2,2.5-5.3c1.1-1.7,1.9-2.1,2.5-1.5c0.4,0.4,0.4,0.8-0.1,1.4
			c-0.4,0.5-0.4,0.7,0.4,0.8c0.4,0,0.5,0.1,0.7,0.5c0.1,0.3,0.4,0.5,0.7,0.7c1.1,0.5,1.5,0.5,6,0.7c5.5,0.3,8.3,0.9,12.7,3
			c2,0.9,3.5,1.5,5.1,1.8c1.1,0.2,2.1,0.3,2.1,0.1c0,0-0.2-0.4-0.4-0.7c-1.5-2.4-4.5-8.3-5.1-9.9c-0.2-0.6-0.6-1.9-0.8-2.9
			c-0.5-1.9-1-3.1-1.8-4.6c-0.4-0.8-0.8-1.2-1.6-1.9c-1.5-1.3-2.2-1.7-3.2-1.8c-1.7-0.2-2-1.1-0.8-2.6c1.1-1.4,4.9-4.7,8.1-7
			c4.8-3.5,9.6-7.2,8.9-7c-0.2,0.1-4.4,0.2-9.4,0.3c-5,0.1-9.6,0.2-10.3,0.2c-1.2,0.1-1.8-0.1-1.8-0.7c0-0.1-0.1-0.4-0.2-0.4
			c-0.3-0.2-0.3-1,0-2.8c0.5-3.4,1.2-5.3,4.1-11.2c1.6-3.1,2.9-5.6,4.3-7.8c0.7-1.2,1.7-3.1,2-4.2c0.7-2.3,0.9-6.7,0.4-8.7
			c-0.4-1.7-1.2-3.6-2-4.9c-0.4-0.6-1.1-1.9-1.6-2.7c-1.1-1.8-1.5-2.4-3.7-4.6c-1.9-1.9-2.2-2.1-3.5-1.7c-1.8,0.6-4.9,2.9-7.3,5.4
			c-3.7,4-7.5,9.2-8.7,11.9c-0.6,1.2-0.7,2-0.9,4.4c-0.1,1.6-0.2,1.8-0.5,2.1c-0.4,0.3-0.8,0.3-1.2,0c-0.3-0.3-0.3-0.4-0.3-1.7
			c0.1-4.1,0.8-5.8,4.5-10.9c5.7-8,11.3-12.9,15.1-13.2c1.4-0.1,2,0.2,4.1,2.4c2.1,2.2,2.9,3.1,4,5.1c0.4,0.8,1.1,2,1.6,2.7
			c0.9,1.5,1.7,3.5,2.2,5.4c0.3,1.1,0.3,1.8,0.3,3.4c0,5.1-0.7,7.3-3.9,12.5c-2,3.2-5.6,10.5-6.3,12.8c-0.3,1-0.8,3.4-1,4.7
			l-0.1,0.9l0.8-0.1c0.4,0,4.9-0.1,9.9-0.2c6.7-0.1,9.6-0.2,10.7-0.4c1-0.1,1.7-0.2,1.9-0.1c0.4,0.1,0.6,0.7,0.4,1.2
			c-0.1,0.4-1.6,1.8-4.5,4.2c-2,1.6-2.7,2.1-6.2,4.7c-3,2.2-8,6.4-8,6.7c0,0.1,0.3,0.2,0.7,0.4c0.9,0.4,2.7,1.8,3.7,2.8
			c1.1,1.2,2.3,3.6,3,6.2c0.7,2.7,1.3,4.2,2.4,6.5c1.1,2.2,2.9,5.4,3.9,7c0.9,1.4,0.5,2.3-1.2,2.7c-1.8,0.4-4.9-0.4-8.3-2
			c-4.5-2.1-6.9-2.6-13.3-3c-3-0.2-4.2-0.3-5.2-0.6c-0.3-0.1-0.6-0.2-0.7-0.2c-0.2,0.2-0.3,1.9-0.2,2.4c0.1,0.5,0.1,0.6-0.3,0.8
			c-0.5,0.3-0.8,0.9-0.9,1.4c0,0.2-0.2-0.1-0.4-0.7c-0.4-1.2-0.5-2.5-0.2-4c0.2-0.9,0.2-1-0.1-1.3c-0.3-0.3-0.3-0.3-0.8,0.9
			c-0.3,0.7-1,2.3-1.5,3.7c-0.9,2.4-1.9,4.4-2.9,6c-0.6,0.9-2,2.7-2.3,3C352.3,598.4,351.7,598.3,351.4,598L351.4,598z M364.4,595.2
			c-1.2-1.1-2.3-2.2-2.9-3.1c-0.3-0.4-0.3-0.4,0-0.3c0.6,0.3,0.8,0.2,1.3,0l0.5-0.3l0.9,1c0.7,0.8,0.9,1,0.8,1.2
			c-0.1,0.1-0.1,0.5-0.1,0.8c0,0.4,0.1,0.7,0.5,1.1C366.1,596.5,365.7,596.3,364.4,595.2L364.4,595.2z M349.1,550.5
			c-0.4-0.1-1-0.3-1.3-0.6c-1-0.6-2.4-2-2.8-2.6c-0.3-0.7-0.6-2.5-0.6-4.9c0-1.4,0-1.8,0.3-2.3c0.4-0.8,1.1-1.7,1.9-2.2
			c0.5-0.4,0.7-0.4,2.1-0.4l1.5,0l1.4,0.7c2.5,1.2,3.9,3,3.9,5c0,0.9-0.4,2.7-0.9,3.6c-0.5,1-1.9,2.7-2.5,3.2
			c-0.5,0.4-1.8,0.9-2.2,0.8C349.8,550.7,349.4,550.6,349.1,550.5L349.1,550.5z M350.6,548.6c0.7-0.3,2.3-2.5,2.6-3.4
			c0.1-0.4,0.3-1.2,0.3-1.7c0.1-0.8,0-1-0.2-1.5c-0.4-0.8-1.4-1.5-2.6-2.1c-1.4-0.7-2-0.7-2.6,0c-0.3,0.4-0.6,0.5-0.9,0.5
			c-0.9,0-1.1,0.7-0.9,3.5c0.1,1.2,0.2,2.4,0.3,2.6c0.2,0.6,1.4,1.6,2.3,2C349.9,548.9,349.9,548.9,350.6,548.6L350.6,548.6z
			 M365.7,533c-0.4-0.4-0.6-1.7-0.5-3.4c0.1-0.8,0-1.3-0.2-1.9c-0.3-0.9-0.5-2.1-0.8-5.3c-0.3-2.8-0.2-4.5,0.3-6.9
			c0.6-2.9,1.3-4.4,2.8-5.8c2-1.8,3.5-1.9,4.6-0.1c0.7,1.1,0.9,2.1,0.9,4.6c0.1,4.3-0.7,6.9-2.9,10.1c-0.5,0.8-1.3,1.9-1.8,2.6
			l-0.8,1.2l0.2,1.1c0.3,1.4,0.3,1.9,0,2.4c-0.1,0.2-0.3,0.5-0.3,0.8C367.2,533.3,366.3,533.6,365.7,533L365.7,533z M368.4,523.2
			c1.2-1.8,1.7-2.8,2.1-4.5c0.3-1.3,0.4-1.8,0.4-3.9c0-2.5-0.2-3.5-0.7-4.3l-0.2-0.3l-0.6,0.3c-2.7,1.5-3.8,5.9-3.1,12.8
			c0.1,1.3,0.2,2.4,0.2,2.5C366.5,525.9,367.1,525.1,368.4,523.2z M310.5,527.6c-1.2-1.4-2.9-4.9-3.7-7.6c-0.5-1.9-1.2-4.9-1.6-7.5
			c-0.3-1.9-0.3-2.4-0.2-2.8c0.3-1.1,1-1.5,2.4-1.5c2,0,3.5,1.5,4.4,4.4c1,3,1.5,8.6,1,11.6c-0.1,0.5-0.1,1.5-0.1,2.2
			c0.1,1.1,0,1.3-0.2,1.7c-0.2,0.4-0.4,0.5-0.8,0.5C311.4,528.4,311.2,528.3,310.5,527.6L310.5,527.6z M311.2,520.9
			c0-2.1-0.9-7.3-1.5-8.8c-0.4-1-1.1-1.9-1.7-2.1c-0.6-0.2-1.3-0.2-1.3,0.1c0,0.1,0.1,1,0.3,2c0.9,5.4,2,9.5,3.5,12.1l0.4,0.7
			l0.2-1.4C311.1,522.8,311.2,521.6,311.2,520.9L311.2,520.9z"/>
	</g>
</g>
</svg>
