<?xml version="1.0" encoding="utf-8"?>
<!-- Generator: Adobe Illustrator 24.3.0, SVG Export Plug-In . SVG Version: 6.00 Build 0)  -->
<svg version="1.1" id="Слой_1" xmlns="http://www.w3.org/2000/svg" xmlns:xlink="http://www.w3.org/1999/xlink" x="0px" y="0px"
	 viewBox="0 0 24 24" style="enable-background:new 0 0 24 24;" xml:space="preserve">
<style type="text/css">
	.st0{fill:#FFA600;}
</style>
<path class="st0" d="M20.3,4.4c-1.6-0.7-3.2-1.2-4.9-1.5c0,0-0.1,0-0.1,0c-0.2,0.4-0.4,0.9-0.6,1.3c-1.8-0.3-3.7-0.3-5.5,0
	C9.1,3.7,8.9,3.3,8.6,2.9c0,0,0,0-0.1,0C6.9,3.1,5.2,3.7,3.7,4.4c0,0,0,0,0,0c-3.1,4.6-4,9.2-3.5,13.7c0,0,0,0,0,0.1
	c1.8,1.3,3.8,2.4,6,3c0,0,0.1,0,0.1,0c0.5-0.6,0.9-1.3,1.2-2c0,0,0-0.1,0-0.1c0,0,0,0,0,0c-0.6-0.2-1.3-0.5-1.9-0.9c0,0,0-0.1,0-0.1
	c0,0,0,0,0,0c0.1-0.1,0.3-0.2,0.4-0.3c0,0,0.1,0,0.1,0c3.9,1.8,8.2,1.8,12.1,0c0,0,0.1,0,0.1,0c0.1,0.1,0.2,0.2,0.4,0.3
	c0,0,0,0.1,0,0.1c0,0,0,0,0,0c-0.6,0.3-1.2,0.6-1.9,0.9c0,0-0.1,0.1,0,0.1c0,0,0,0,0,0c0.4,0.7,0.8,1.4,1.2,2c0,0,0.1,0,0.1,0
	c2.2-0.7,4.2-1.7,6-3c0,0,0,0,0-0.1C24.4,12.9,23.1,8.4,20.3,4.4C20.3,4.4,20.3,4.4,20.3,4.4L20.3,4.4z M8,15.3
	c-1.2,0-2.2-1.1-2.2-2.4c0-1.3,1-2.4,2.2-2.4c1.2,0,2.2,1.1,2.2,2.4C10.2,14.2,9.2,15.3,8,15.3z M16,15.3c-1.2,0-2.2-1.1-2.2-2.4
	c0-1.3,1-2.4,2.2-2.4c1.2,0,2.2,1.1,2.2,2.4C18.2,14.2,17.2,15.3,16,15.3z"/>
</svg>
