<?xml version="1.0" encoding="utf-8"?>
<!-- Generator: Adobe Illustrator 24.3.0, SVG Export Plug-In . SVG Version: 6.00 Build 0)  -->
<svg version="1.1" id="Layer_1" xmlns="http://www.w3.org/2000/svg" xmlns:xlink="http://www.w3.org/1999/xlink" x="0px" y="0px"
	 viewBox="0 0 266.7 265.77" style="enable-background:new 0 0 266.7 265.77;" xml:space="preserve">
<style type="text/css">
	.st0{fill:#FF8C00;}
</style>
<path class="st0" d="M198.56,169.22c0.61,4.1-0.68,5.79-1.98,5.79c-1.42,0-3.2-1.66-5.3-4.94c-2.07-3.24-2.83-6.95-1.8-8.82
	c0.68-1.24,2.1-1.78,3.89-1.1C196.83,161.46,198.2,166.77,198.56,169.22z M179.37,178.16c4.16,3.52,5.43,7.7,3.22,10.65
	c-1.22,1.62-3.21,2.51-5.58,2.51c-2.33,0-4.71-0.86-6.36-2.3c-3.78-3.31-4.89-8.67-2.42-11.71c0.96-1.19,2.53-1.85,4.41-1.85
	C174.92,175.45,177.31,176.41,179.37,178.16z M172.41,212.11c17.92,0,37.37,6.15,58.89,25.21c2.16,1.91,5.03-0.46,3.15-2.84
	c-21.15-26.7-40.71-31.79-60.22-36.09c-23.86-5.26-36.14-18.69-44.69-33.43c-1.7-2.93-2.47-2.42-2.62,1.35
	c-0.19,4.61,0.13,10.71,1.16,16.72l0,0c-0.96,0.04-1.93,0.03-2.9,0.03c-34.14,0-61.81-27.68-61.81-61.81
	c0-34.14,27.68-61.81,61.81-61.81s61.81,27.68,61.81,61.81c0,2.43-0.12,4.83-0.39,7.19c-4.52-0.81-13.4-0.91-19.63-0.37
	c-2.34,0.2-2.01,1.29-0.24,1.62c20.43,3.69,34.47,16.36,37.68,39.34c0.07,0.53,0.77,0.69,1.04,0.23c8.41-14.03,13.24-30.45,13.24-48
	c0-51.64-41.87-93.51-93.51-93.51s-93.51,41.87-93.51,93.51c0,51.64,41.87,93.51,93.51,93.51
	C138.87,214.77,152.46,212.11,172.41,212.11z"/>
</svg>
