<?xml version="1.0" encoding="utf-8"?>
<!-- Generator: Adobe Illustrator 24.3.0, SVG Export Plug-In . SVG Version: 6.00 Build 0)  -->
<svg version="1.1" id="Слой_1" xmlns="http://www.w3.org/2000/svg" xmlns:xlink="http://www.w3.org/1999/xlink" x="0px" y="0px"
	 viewBox="0 0 301 63" style="enable-background:new 0 0 301 63;" xml:space="preserve">
<style type="text/css">
	.st0{fill:#FFA600;}
</style>
<path class="st0" d="M291.7,17.3l-7,17.1c-0.2,0.2-0.2,0.6-0.2,0.8l-0.2,0.4l-0.2-0.4c0-0.2-0.2-0.6-0.2-0.8l-7-17.1h-9l11.8,29.3
	l-5,11.2h9l16.5-40.5H291.7z"/>
<path class="st0" d="M225.5,18.9c-1.6-1.2-3.6-2-6-2.2c-4-0.4-7.8,1-10.4,3.6v-3.2H201v29.3h8.2V31.1c0-3.4,0.6-4.4,1.2-5.2
	c1-1.6,2.8-2.4,5-2.4c2.2,0,4.2,1,5.2,2.6c0.6,1.2,0.8,2.8,0.8,3.6c0,2.6,0,16.7,0,16.7h8.2V28.7C229.5,24.1,228.3,20.9,225.5,18.9z
	"/>
<path class="st0" d="M185.6,17.5c-4-1.4-8.4-1.2-12.4,0.6c-2.6,1.2-5,3.2-6.4,5.8c-1.4,2.2-2,5-2,8s0.6,5.8,2,8
	c1.4,2.2,3.2,4.2,5.6,5.4c2.4,1.2,5.2,2,7.8,2c1.4,0,2.8-0.2,4.2-0.6c1.2-0.4,2.4-0.8,3.6-1.4c2.4-1.4,4.4-3.2,5.6-5.4
	c1.4-2.2,2-5,2-8C195.6,25.3,191.8,19.7,185.6,17.5z M187.8,32.3c-0.2,2.6-1,4.8-2.6,6.2c-1.2,1-3,1.6-5.2,1.8
	c-2.2,0-3.8-0.6-5.2-1.8c-1.6-1.4-2.4-3.6-2.6-6.2c-0.2-3,1-5.4,3.2-7c1.2-0.8,2.8-1.4,4.4-1.4c1.8,0,3.2,0.6,4.6,1.4
	C186.8,26.7,188,29.3,187.8,32.3z"/>
<path class="st0" d="M155.3,18.9c-1.6-1.2-3.6-2-6-2.2c-0.4,0-1,0-1.4,0c-3.2,0-6,1.4-8.4,4.2l-0.4,0.6h-0.8c-0.6-1-1.4-1.8-2.2-2.4
	c-1.6-1.2-3.6-2-6-2.2c-3.8-0.4-6.8,0.8-9.4,3.6v-3h-8.2v29.3h8.2V31.5v-0.4c0-3.2,0.4-4,1-5c1-1.6,2.8-2.6,4.8-2.4
	c2,0,3.8,1,4.8,2.6c0.8,1.2,0.8,2.6,0.8,4v16.3h8.2V30.9c0-3,0.4-4,1-5c1-1.6,2.8-2.4,4.8-2.4c2,0,3.6,1,4.6,2.6
	c0.6,1,0.8,2.2,0.8,3c0,0.4,0,0.8,0,1v16.3h8.2V28.5c0-1.6-0.2-3.2-0.6-4.6C158.3,21.9,157.1,20.1,155.3,18.9z"/>
<path class="st0" d="M260.2,37.7c-1.2,1.2-4,3.4-7.8,3.6c-3.2,0.2-5.6-0.8-7.4-2.6c-0.8-0.8-1.4-2-1.8-3.2h22.5v-0.2
	c0.2-1.2,0.4-2.2,0.4-3.4c0-1-0.2-2.4-0.6-4.2c-1-3.4-3-6-5.6-8c-3-2.2-5.8-2.8-6.6-2.8c-5.8-1-12.4,1.6-15.8,7
	c-2.4,3.8-2.2,7.6-2.2,8.8c0,1.4,0.2,5.8,3.8,9.8c4.2,4.6,10,4.8,11.8,5c8,0.2,13.4-4.8,14.6-5.8L260.2,37.7z M246.2,25.3
	c1.2-0.8,2.6-1.4,4.4-1.4c1.8,0,3.2,0.6,4.6,1.4c1.2,1,2.2,2.2,2.8,3.6h-14.4C244,27.5,244.8,26.1,246.2,25.3z"/>
<path class="st0" d="M57.2,0C39.7,0,25.7,14.2,25.7,31.5C25.7,49,39.9,63,57.2,63c17.3,0,31.5-14.2,31.5-31.5S74.6,0,57.2,0z
	 M57.2,43.1c-6.4,0-11.8-5.4-11.8-11.8c0-6.4,5.4-11.8,11.8-11.8c6.4,0,11.8,5.4,11.8,11.8C68.8,37.9,63.6,43.1,57.2,43.1z"/>
<path class="st0" d="M25.5,9v45.9H14.4L0,9H25.5z"/>
</svg>
