<?xml version="1.0" encoding="utf-8"?>
<!-- Generator: Adobe Illustrator 24.3.0, SVG Export Plug-In . SVG Version: 6.00 Build 0)  -->
<svg version="1.1" id="Слой_1" xmlns="http://www.w3.org/2000/svg" xmlns:xlink="http://www.w3.org/1999/xlink" x="0px" y="0px"
	 viewBox="0 0 512 512" style="enable-background:new 0 0 512 512;" xml:space="preserve">
<style type="text/css">
	.st0{fill:#FF8C00;}
</style>
<path class="st0" d="M480,173.6c0-104.1-68.3-134.6-68.3-134.6C377.3,23.1,318.2,16.5,256.8,16h-1.5c-61.4,0.5-120.5,7.1-154.9,22.9
	c0,0-68.3,30.5-68.3,134.6c0,23.9-0.5,52.4,0.3,82.6C34.9,358,51.1,458.4,145.3,483.3c43.4,11.5,80.7,13.9,110.8,12.2
	c54.5-3,85-19.4,85-19.4l-1.8-39.5c0,0-38.9,12.3-82.6,10.8c-43.3-1.5-89-4.7-96-57.8c-0.7-4.9-1-9.9-1-14.9
	c31.7,7.1,63.9,11.4,96.4,12.9c33,1.5,63.8-1.9,95.2-5.7c60.2-7.2,112.6-44.2,119.2-78.1C480.8,250.4,480,173.6,480,173.6z
	 M399.5,307.8h-50V185.4c0-25.8-10.9-38.9-32.6-38.9c-24,0-36.1,15.5-36.1,46.2v67h-49.7v-67c0-30.7-12-46.2-36.1-46.2
	c-21.7,0-32.6,13.1-32.6,38.9v122.4h-50V181.7c0-25.8,6.6-46.2,19.8-61.4c13.6-15.2,31.4-22.9,53.5-22.9c25.6,0,44.9,9.8,57.8,29.5
	l12.5,20.9l12.5-20.9c12.8-19.7,32.2-29.5,57.8-29.5c22.1,0,39.9,7.8,53.5,22.9c13.2,15.1,19.8,35.6,19.7,61.4V307.8z"/>
</svg>
