<?xml version="1.0" encoding="UTF-8" standalone="no"?>
<!-- Svg Vector Icons : http://www.onlinewebfonts.com/icon -->

<svg
   version="1.1"
   x="0px"
   y="0px"
   viewBox="0 0 1000 1000"
   enable-background="new 0 0 1000 1000"
   xml:space="preserve"
   id="svg3448"
   sodipodi:docname="bio.svg"
   inkscape:version="1.2 (dc2aedaf03, 2022-05-15)"
   xmlns:inkscape="http://www.inkscape.org/namespaces/inkscape"
   xmlns:sodipodi="http://sodipodi.sourceforge.net/DTD/sodipodi-0.dtd"
   xmlns="http://www.w3.org/2000/svg"
   xmlns:svg="http://www.w3.org/2000/svg"><defs
   id="defs3452" /><sodipodi:namedview
   id="namedview3450"
   pagecolor="#ffffff"
   bordercolor="#000000"
   borderopacity="0.25"
   inkscape:showpageshadow="2"
   inkscape:pageopacity="0.0"
   inkscape:pagecheckerboard="0"
   inkscape:deskcolor="#d1d1d1"
   showgrid="false"
   inkscape:zoom="0.837"
   inkscape:cx="502.98686"
   inkscape:cy="502.38949"
   inkscape:window-width="963"
   inkscape:window-height="1008"
   inkscape:window-x="-7"
   inkscape:window-y="0"
   inkscape:window-maximized="0"
   inkscape:current-layer="svg3448" />
<metadata
   id="metadata3438"> Svg Vector Icons : http://www.onlinewebfonts.com/icon </metadata>
<g
   id="g3446"
   style="fill:#9dbcff;fill-opacity:1;opacity:1"><g
     transform="translate(0.000000,511.000000) scale(0.100000,-0.100000)"
     id="g3444"
     style="fill:#9dbcff;fill-opacity:1"><path
       d="M4698.5,4911.5c-928-150.5-1641.1-763.2-1956.4-1680.5C2340.8,2070.1,2946.4,400.4,4021.3-323.4C4383.2-563.5,4587.4-628,5003.1-628s616.3,64.5,985.3,308.2c813.4,544.6,1383.1,1662.6,1390.3,2719.6c3.6,616.3-139.8,1060.6-498.1,1565.8C6404.1,4632,5476.1,5033.3,4698.5,4911.5z"
       id="path3440"
       style="fill:#9dbcff;fill-opacity:1" /><path
       d="M2656.1-506.2c-931.6-354.7-1755.7-802.6-2071-1117.9c-129-129-175.6-215-283.1-544.6c-71.7-218.6-150.5-501.6-175.6-634.2c-39.4-211.4-35.8-258,17.9-404.9c426.4-1114.3,3769.4-1802.3,6693.3-1379.5c1601.6,232.9,2794.8,781.1,3024.1,1386.7c71.7,189.9,50.2,365.5-129,942.4c-143.3,458.6-225.7,587.6-519.6,813.4c-297.4,229.3-1286.3,727.4-1913.4,960.3l-444.2,164.8l-164.8-157.7c-326.1-311.7-734.5-544.6-1150.2-652.1c-329.7-86-935.2-60.9-1254.1,50.2c-318.9,111.1-673.6,326.1-928,559c-114.7,107.5-215,197.1-222.2,197.1C3129.1-327,2914.1-405.8,2656.1-506.2z"
       id="path3442"
       style="fill:#9dbcff;fill-opacity:1" /></g></g>
</svg>
