<?xml version="1.0" encoding="UTF-8" standalone="no"?>
<svg
   height="24"
   viewBox="0 0 24 24"
   width="24"
   version="1.1"
   id="svg13258"
   sodipodi:docname="donate.svg"
   inkscape:version="1.2 (dc2aedaf03, 2022-05-15)"
   xmlns:inkscape="http://www.inkscape.org/namespaces/inkscape"
   xmlns:sodipodi="http://sodipodi.sourceforge.net/DTD/sodipodi-0.dtd"
   xmlns="http://www.w3.org/2000/svg"
   xmlns:svg="http://www.w3.org/2000/svg">
  <defs
     id="defs13262" />
  <sodipodi:namedview
     id="namedview13260"
     pagecolor="#ffffff"
     bordercolor="#000000"
     borderopacity="0.25"
     inkscape:showpageshadow="2"
     inkscape:pageopacity="0.0"
     inkscape:pagecheckerboard="0"
     inkscape:deskcolor="#d1d1d1"
     showgrid="false"
     inkscape:zoom="34.875"
     inkscape:cx="12"
     inkscape:cy="12.587814"
     inkscape:window-width="1920"
     inkscape:window-height="1017"
     inkscape:window-x="-8"
     inkscape:window-y="-8"
     inkscape:window-maximized="1"
     inkscape:current-layer="svg13258" />
  <path
     d="M17.726 13.02 14 16H9v-1h4.065a.5.5 0 0 0 .416-.777l-.888-1.332A1.995 1.995 0 0 0 10.93 12H3a1 1 0 0 0-1 1v6a2 2 0 0 0 2 2h9.639a3 3 0 0 0 2.258-1.024L22 13l-1.452-.484a2.998 2.998 0 0 0-2.822.504zm1.532-5.63c.451-.465.73-1.108.73-1.818s-.279-1.353-.73-1.818A2.447 2.447 0 0 0 17.494 3S16.25 2.997 15 4.286C13.75 2.997 12.506 3 12.506 3a2.45 2.45 0 0 0-1.764.753c-.451.466-.73 1.108-.73 1.818s.279 1.354.73 1.818L15 12l4.258-4.61z"
     id="path13256"
     style="fill:#9dbcff;fill-opacity:1" />
</svg>
