<?xml version="1.0" encoding="utf-8"?>
<!-- Generator: Adobe Illustrator 24.3.0, SVG Export Plug-In . SVG Version: 6.00 Build 0)  -->
<svg version="1.1" id="Слой_1" xmlns="http://www.w3.org/2000/svg" xmlns:xlink="http://www.w3.org/1999/xlink" x="0px" y="0px"
	 viewBox="0 0 24 24" style="enable-background:new 0 0 24 24;" xml:space="preserve">
<style type="text/css">
	.st0{fill:#FFA600;}
</style>
<path class="st0" d="M17.7,13L14,16H9v-1h4.1c0.3,0,0.5-0.2,0.5-0.5c0-0.1,0-0.2-0.1-0.3l-0.9-1.3c-0.4-0.6-1-0.9-1.7-0.9H3
	c-0.6,0-1,0.4-1,1v6c0,1.1,0.9,2,2,2h9.6c0.9,0,1.7-0.4,2.3-1l6.1-7l-1.5-0.5C19.6,12.2,18.5,12.4,17.7,13z M19.3,7.4
	C19.7,6.9,20,6.3,20,5.6s-0.3-1.4-0.7-1.8C18.8,3.3,18.2,3,17.5,3c0,0-1.2,0-2.5,1.3C13.8,3,12.5,3,12.5,3c-0.7,0-1.3,0.3-1.8,0.8
	C10.3,4.2,10,4.9,10,5.6s0.3,1.4,0.7,1.8L15,12C15,12,19.3,7.4,19.3,7.4z"/>
</svg>
