<?xml version="1.0" encoding="UTF-8" standalone="no"?>
<svg
   width="169"
   height="120"
   viewBox="0 0 169 120"
   fill="none"
   version="1.1"
   id="svg6"
   sodipodi:docname="io.svg"
   inkscape:version="1.2 (dc2aedaf03, 2022-05-15)"
   xmlns:inkscape="http://www.inkscape.org/namespaces/inkscape"
   xmlns:sodipodi="http://sodipodi.sourceforge.net/DTD/sodipodi-0.dtd"
   xmlns="http://www.w3.org/2000/svg"
   xmlns:svg="http://www.w3.org/2000/svg">
  <defs
     id="defs10" />
  <sodipodi:namedview
     id="namedview8"
     pagecolor="#ffffff"
     bordercolor="#000000"
     borderopacity="0.25"
     inkscape:showpageshadow="2"
     inkscape:pageopacity="0.0"
     inkscape:pagecheckerboard="0"
     inkscape:deskcolor="#d1d1d1"
     showgrid="false"
     inkscape:zoom="6.975"
     inkscape:cx="84.516129"
     inkscape:cy="60.071685"
     inkscape:window-width="1920"
     inkscape:window-height="1017"
     inkscape:window-x="-8"
     inkscape:window-y="-8"
     inkscape:window-maximized="1"
     inkscape:current-layer="svg6" />
  <path
     d="M108.99 0C75.5725 0 48.9902 26.962 48.9902 60C48.9902 93.4177 75.9523 120 108.99 120C142.028 120 168.99 93.038 168.99 60C168.99 26.962 142.028 0 108.99 0ZM108.99 82.4051C96.8383 82.4051 86.5852 72.1519 86.5852 60C86.5852 47.8481 96.8383 37.5949 108.99 37.5949C121.142 37.5949 131.395 47.8481 131.395 60C131.016 72.1519 121.142 82.4051 108.99 82.4051Z"
     fill="#8B3FFD"
     id="path2"
     style="fill:#9dbcff;fill-opacity:1" />
  <path
     d="M48.6076 17.4684V104.81H27.3418L0 17.4684H48.6076V17.4684Z"
     fill="#8B3FFD"
     id="path4"
     style="fill:#9dbcff;fill-opacity:1" />
</svg>
