<svg width="35" height="28" viewBox="0 0 35 28" fill="none" xmlns="http://www.w3.org/2000/svg">
<path d="M32.5197 14.6856C35.7861 11.3751 35.7861 6.01373 32.5197 2.70318C29.6291 -0.226503 25.0734 -0.607363 21.7492 1.80084L21.6567 1.86529C20.8242 2.46881 20.6334 3.64068 21.2289 4.47857C21.8244 5.31647 22.9806 5.51568 23.8074 4.91217L23.8999 4.84772C25.7556 3.50592 28.2936 3.71686 29.9008 5.35162C31.7219 7.19732 31.7219 10.1856 29.9008 12.0313L23.4142 18.6172C21.5931 20.4629 18.6447 20.4629 16.8236 18.6172C15.2106 16.9825 15.0025 14.4102 16.3264 12.5352L16.39 12.4415C16.9855 11.5977 16.7889 10.4258 15.9622 9.82819C15.1355 9.23053 13.9734 9.42389 13.3838 10.2618L13.3202 10.3555C10.9383 13.7188 11.3141 18.336 14.2047 21.2657C17.4711 24.5762 22.7609 24.5762 26.0274 21.2657L32.5197 14.6856ZM2.48032 13.3145C-0.786084 16.6251 -0.786084 21.9864 2.48032 25.2969C5.37095 28.2266 9.92657 28.6075 13.2508 26.1993L13.3433 26.1348C14.1758 25.5313 14.3666 24.3594 13.7711 23.5215C13.1756 22.6837 12.0194 22.4844 11.1927 23.0879L11.1002 23.1524C9.24439 24.4942 6.70642 24.2833 5.09923 22.6485C3.27814 20.7969 3.27814 17.8087 5.09923 15.9629L11.5858 9.38287C13.4069 7.53717 16.3553 7.53717 18.1764 9.38287C19.7894 11.0176 19.9975 13.5899 18.6736 15.4708L18.61 15.5645C18.0145 16.4083 18.2111 17.5801 19.0378 18.1778C19.8645 18.7754 21.0266 18.5821 21.6163 17.7442L21.6799 17.6504C24.0617 14.2813 23.6859 9.66412 20.7953 6.73443C17.5289 3.42389 12.2391 3.42389 8.97267 6.73443L2.48032 13.3145Z" fill="white"/>
</svg>
