<?xml version="1.0" encoding="UTF-8" standalone="no"?>
<!-- Generator: Adobe Illustrator 24.3.0, SVG Export Plug-In . SVG Version: 6.00 Build 0)  -->

<svg
   version="1.1"
   id="Слой_1"
   x="0px"
   y="0px"
   viewBox="0 0 338.5 70.2"
   style="enable-background:new 0 0 338.5 70.2;"
   xml:space="preserve"
   sodipodi:docname="whitelogo.svg"
   inkscape:version="1.1.2 (b8e25be833, 2022-02-05)"
   xmlns:inkscape="http://www.inkscape.org/namespaces/inkscape"
   xmlns:sodipodi="http://sodipodi.sourceforge.net/DTD/sodipodi-0.dtd"
   xmlns="http://www.w3.org/2000/svg"
   xmlns:svg="http://www.w3.org/2000/svg"><defs
   id="defs23" />
<style
   type="text/css"
   id="style2">
	.st0{stroke:#000000;stroke-width:0.7743;stroke-linecap:round;stroke-miterlimit:10;}
</style>
<sodipodi:namedview
   bordercolor="#eeeeee"
   borderopacity="1"
   id="namedview35"
   inkscape:current-layer="Слой_1"
   inkscape:cx="50.500001"
   inkscape:cy="14.3125"
   inkscape:pagecheckerboard="0"
   inkscape:pageopacity="0"
   inkscape:pageshadow="0"
   inkscape:window-height="1031"
   inkscape:window-maximized="1"
   inkscape:window-width="1920"
   inkscape:window-x="-8"
   inkscape:window-y="-8"
   inkscape:zoom="7.9999999"
   pagecolor="#505050"
   showgrid="false">
	</sodipodi:namedview>
<path
   id="path4"
   class="st0"
   d="M 321.79784,59.2 H 15.656818 c -4.400589,0 -8.0010713,-2.1 -8.0010713,-4.8 V 52.7 H 329.89893 v 1.7 c 0,2.7 -3.60048,4.8 -8.10109,4.8 z"
   style="fill:#9dbcff;stroke:#9dbcff;stroke-opacity:1;fill-opacity:1" />
<g
   id="g8">
	<g
   id="g6">
	</g>
</g>
<g
   id="g32"
   transform="translate(-350.72496,-528.91587)"
   style="fill:#9dbcff;fill-opacity:1">
	<path
   id="path10"
   d="M391.1,546.3c2,0,3.9,0.4,5.5,1.2c1.6,0.8,2.8,2.1,3.7,3.7s1.3,3.8,1.3,6.5v14.8h-7.5v-13.6   c0-2.1-0.4-3.6-1.3-4.6c-0.9-1-2-1.5-3.6-1.5c-1.1,0-2.1,0.2-3,0.7c-0.9,0.5-1.5,1.2-2,2.2c-0.5,1-0.7,2.2-0.7,3.8v13h-7.5v-13.6   c0-2.1-0.4-3.6-1.3-4.6c-0.9-1-2.1-1.5-3.7-1.5c-1.1,0-2.1,0.2-2.9,0.7c-0.9,0.5-1.5,1.2-2,2.2c-0.5,1-0.7,2.2-0.7,3.8v13H358   v-25.8h7.1v7l-1.3-2c0.9-1.8,2.1-3.1,3.8-4c1.7-0.9,3.5-1.4,5.6-1.4c2.4,0,4.5,0.6,6.2,1.8c1.8,1.2,3,3,3.5,5.5l-2.6-0.7   c0.9-2,2.2-3.6,4.1-4.8C386.4,546.9,388.6,546.3,391.1,546.3L391.1,546.3z"
   style="fill:#9dbcff;fill-opacity:1" />
	<path
   id="path12"
   d="M420.8,572.9c-2.7,0-5.1-0.6-7.3-1.7c-2.1-1.2-3.8-2.7-5-4.7s-1.8-4.3-1.8-6.8c0-2.6,0.6-4.9,1.8-6.9   c1.2-2,2.9-3.6,5-4.7c2.1-1.1,4.5-1.7,7.3-1.7c2.8,0,5.2,0.6,7.3,1.7c2.1,1.1,3.8,2.7,5,4.7s1.8,4.3,1.8,6.9s-0.6,4.9-1.8,6.9   c-1.2,2-2.9,3.5-5,4.7C426,572.3,423.5,572.9,420.8,572.9z M420.8,566.7c1.3,0,2.4-0.3,3.4-0.8c1-0.6,1.8-1.4,2.4-2.5   c0.6-1.1,0.9-2.4,0.9-3.8c0-1.5-0.3-2.8-0.9-3.8c-0.6-1.1-1.4-1.9-2.4-2.4c-1-0.6-2.1-0.8-3.3-0.8s-2.4,0.3-3.4,0.8   s-1.8,1.4-2.4,2.4c-0.6,1.1-0.9,2.3-0.9,3.8c0,1.5,0.3,2.8,0.9,3.8c0.6,1.1,1.4,1.9,2.4,2.5S419.6,566.7,420.8,566.7L420.8,566.7z"
   style="fill:#9dbcff;fill-opacity:1" />
	<path
   id="path14"
   d="M436.9,553v-5.8h17.9v5.8H436.9z M450.5,572.9c-3,0-5.4-0.8-7.1-2.3c-1.7-1.5-2.5-3.9-2.5-6.9V541h7.5v22.5   c0,1.1,0.3,1.9,0.8,2.5c0.6,0.6,1.3,0.9,2.3,0.9c1.2,0,2.2-0.3,3.1-1l2,5.3c-0.7,0.5-1.6,1-2.7,1.2   C452.8,572.8,451.7,572.9,450.5,572.9L450.5,572.9z"
   style="fill:#9dbcff;fill-opacity:1" />
	<path
   id="path16"
   d="M464.6,543.1c-1.4,0-2.5-0.4-3.4-1.2c-0.9-0.8-1.3-1.8-1.3-3c0-1.2,0.4-2.2,1.3-3c0.9-0.8,2-1.2,3.4-1.2   c1.4,0,2.5,0.4,3.4,1.1s1.3,1.7,1.3,2.9c0,1.2-0.4,2.3-1.3,3.1C467.1,542.7,466,543.1,464.6,543.1L464.6,543.1z M460.9,572.5v-25.8   h7.5v25.8H460.9z"
   style="fill:#9dbcff;fill-opacity:1" />
	<path
   id="path18"
   d="M487.5,572.9c-2.7,0-5.1-0.6-7.3-1.7c-2.1-1.2-3.8-2.7-5-4.7s-1.8-4.3-1.8-6.8c0-2.6,0.6-4.9,1.8-6.9   c1.2-2,2.9-3.6,5-4.7c2.1-1.1,4.6-1.7,7.3-1.7c2.8,0,5.2,0.6,7.3,1.7c2.1,1.1,3.8,2.7,5,4.7s1.8,4.3,1.8,6.9s-0.6,4.9-1.8,6.9   c-1.2,2-2.9,3.5-5,4.7C492.7,572.3,490.3,572.9,487.5,572.9z M487.5,566.7c1.3,0,2.4-0.3,3.4-0.8c1-0.6,1.8-1.4,2.3-2.5   c0.6-1.1,0.9-2.4,0.9-3.8c0-1.5-0.3-2.8-0.9-3.8s-1.4-1.9-2.3-2.4c-1-0.6-2.1-0.8-3.3-0.8s-2.4,0.3-3.4,0.8s-1.8,1.4-2.4,2.4   c-0.6,1.1-0.9,2.3-0.9,3.8c0,1.5,0.3,2.8,0.9,3.8c0.6,1.1,1.4,1.9,2.4,2.5S486.3,566.7,487.5,566.7z"
   style="fill:#9dbcff;fill-opacity:1" />
	<path
   id="path20"
   d="M522.4,546.3c2,0,3.9,0.4,5.5,1.2c1.6,0.8,2.9,2.1,3.8,3.7s1.4,3.8,1.4,6.5v14.8h-7.5v-13.6   c0-2.1-0.5-3.6-1.4-4.6s-2.2-1.5-3.9-1.5c-1.2,0-2.2,0.3-3.2,0.8s-1.7,1.3-2.2,2.3c-0.5,1-0.8,2.3-0.8,3.9v12.8h-7.5v-25.8h7.2v7.2   l-1.3-2.2c0.9-1.7,2.3-3.1,4-4C518.2,546.8,520.2,546.3,522.4,546.3L522.4,546.3z"
   style="fill:#9dbcff;fill-opacity:1" />
	<path
   id="path22"
   d="M547.9,572.9c-2,0-3.7-0.3-5.1-1s-2.5-1.6-3.3-2.8c-0.8-1.2-1.2-2.5-1.2-4c0-1.5,0.4-2.8,1.1-4   c0.8-1.2,1.9-2.1,3.6-2.7c1.6-0.6,3.8-1,6.4-1h6.8v4.3h-6c-1.8,0-3,0.3-3.6,0.9s-1,1.3-1,2.2c0,1,0.4,1.7,1.1,2.3   c0.8,0.6,1.8,0.8,3,0.8c1.3,0,2.4-0.3,3.4-0.9c1-0.6,1.7-1.5,2.1-2.6l1.2,3.5c-0.5,1.6-1.5,2.8-3,3.7   C552,572.5,550.1,572.9,547.9,572.9L547.9,572.9z M555.7,572.5v-5l-0.5-1.1v-9c0-1.6-0.5-2.8-1.5-3.7c-1-0.9-2.5-1.3-4.5-1.3   c-1.4,0-2.7,0.2-4.1,0.7c-1.3,0.4-2.5,1-3.4,1.8l-2.6-5.2c1.4-1,3.1-1.8,5.1-2.3c2-0.5,4-0.8,6-0.8c3.9,0,7,0.9,9.2,2.8   c2.2,1.9,3.3,4.8,3.3,8.7v14.7L555.7,572.5L555.7,572.5z"
   style="fill:#9dbcff;fill-opacity:1" />
	<path
   id="path24"
   d="M569.5,572.5v-25.8h7.2v7.3l-1-2.2c0.8-1.8,2-3.2,3.7-4.2s3.8-1.4,6.2-1.4v7c-0.3-0.1-0.6-0.1-0.8-0.1   s-0.5,0-0.8,0c-2.1,0-3.8,0.6-5,1.8c-1.2,1.2-1.9,3-1.9,5.5v12.2L569.5,572.5L569.5,572.5z"
   style="fill:#9dbcff;fill-opacity:1" />
	<path
   id="path26"
   d="M593.8,543.1c-1.4,0-2.5-0.4-3.4-1.2c-0.9-0.8-1.3-1.8-1.3-3c0-1.2,0.4-2.2,1.3-3c0.9-0.8,2-1.2,3.4-1.2   c1.4,0,2.5,0.4,3.4,1.1s1.3,1.7,1.3,2.9c0,1.2-0.4,2.3-1.3,3.1C596.3,542.7,595.2,543.1,593.8,543.1z M590,572.5v-25.8h7.5v25.8   H590z"
   style="fill:#9dbcff;fill-opacity:1" />
	<path
   id="path28"
   d="M615.3,572.9c-2.2,0-4.1-0.4-5.8-1.2c-1.7-0.8-3-2.1-3.9-3.8c-0.9-1.7-1.4-3.9-1.4-6.5v-14.6h7.5v13.4   c0,2.2,0.5,3.8,1.4,4.8s2.2,1.5,3.9,1.5c1.2,0,2.2-0.3,3.1-0.8c0.9-0.5,1.6-1.3,2.1-2.3c0.5-1,0.8-2.3,0.8-3.8v-12.8h7.4v25.8h-7.1   v-7.2l1.3,2.1c-0.9,1.8-2.2,3.1-3.8,4.1C619.1,572.4,617.3,572.9,615.3,572.9L615.3,572.9z"
   style="fill:#9dbcff;fill-opacity:1" />
	<path
   id="path30"
   d="M670.5,546.3c2,0,3.9,0.4,5.5,1.2s2.8,2.1,3.7,3.7c0.9,1.7,1.3,3.8,1.3,6.5v14.8h-7.5v-13.6   c0-2.1-0.4-3.6-1.3-4.6c-0.8-1-2-1.5-3.6-1.5c-1.1,0-2.1,0.2-3,0.7c-0.9,0.5-1.5,1.2-2,2.2c-0.5,1-0.7,2.2-0.7,3.8v13h-7.5v-13.6   c0-2.1-0.4-3.6-1.3-4.6c-0.8-1-2.1-1.5-3.7-1.5c-1.1,0-2.1,0.2-2.9,0.7c-0.9,0.5-1.5,1.2-2,2.2c-0.5,1-0.7,2.2-0.7,3.8v13h-7.5   v-25.8h7.2v7l-1.3-2c0.9-1.8,2.1-3.1,3.8-4c1.7-0.9,3.5-1.4,5.6-1.4c2.4,0,4.5,0.6,6.2,1.8s3,3,3.5,5.5l-2.6-0.7   c0.9-2,2.2-3.6,4.1-4.8C665.8,546.9,668,546.3,670.5,546.3L670.5,546.3z"
   style="fill:#9dbcff;fill-opacity:1" />
</g>
<rect
   id="rect1393"
   x="7.7376332"
   y="43.102665"
   width="6.4741287"
   height="8.8415442"
   style="fill:#9dbcff;stroke:#9dbcff;stroke-width:0.931286;stroke-opacity:1;fill-opacity:1" />
<rect
   id="rect1395"
   x="323.24255"
   y="43.755726"
   width="6.5702472"
   height="8.6978989"
   style="fill:#9dbcff;stroke:#9dbcff;stroke-width:0.935853;stroke-opacity:1;fill-opacity:1" />
</svg>
