<?xml version="1.0" encoding="UTF-8" standalone="no"?>
<!-- Generator: Adobe Illustrator 24.0.3, SVG Export Plug-In . SVG Version: 6.00 Build 0)  -->

<svg
   version="1.1"
   id="Layer_1"
   x="0px"
   y="0px"
   viewBox="0 0 266.7 265.8"
   style="enable-background:new 0 0 266.7 265.8;"
   xml:space="preserve"
   sodipodi:docname="qiwi.svg"
   inkscape:version="1.2 (dc2aedaf03, 2022-05-15)"
   xmlns:inkscape="http://www.inkscape.org/namespaces/inkscape"
   xmlns:sodipodi="http://sodipodi.sourceforge.net/DTD/sodipodi-0.dtd"
   xmlns="http://www.w3.org/2000/svg"
   xmlns:svg="http://www.w3.org/2000/svg"><defs
   id="defs2675" /><sodipodi:namedview
   id="namedview2673"
   pagecolor="#ffffff"
   bordercolor="#000000"
   borderopacity="0.25"
   inkscape:showpageshadow="2"
   inkscape:pageopacity="0.0"
   inkscape:pagecheckerboard="0"
   inkscape:deskcolor="#d1d1d1"
   showgrid="false"
   inkscape:zoom="0.78724608"
   inkscape:cx="-309.30608"
   inkscape:cy="266.75268"
   inkscape:window-width="1920"
   inkscape:window-height="1017"
   inkscape:window-x="-8"
   inkscape:window-y="-8"
   inkscape:window-maximized="1"
   inkscape:current-layer="Layer_1" />
<style
   type="text/css"
   id="style2668">
	.st0{fill:#FF8C00;}
</style>
<path
   class="st0"
   d="m 214.83216,176.36349 c 0.64524,4.8393 -0.80656,6.93634 -2.41967,6.93634 -1.61309,0 -3.87145,-1.93572 -6.2911,-5.80717 -2.41964,-3.87145 -3.38752,-8.22684 -2.09703,-10.48517 0.80655,-1.4518 2.41964,-2.09704 4.678,-1.29048 4.03276,1.45177 5.64585,7.74289 6.1298,10.64648 z m -22.90609,10.64647 c 5.00064,4.19408 6.45243,9.19469 3.87147,12.58221 -1.4518,1.93572 -3.87147,2.90359 -6.61372,2.90359 -2.74228,0 -5.64588,-0.96787 -7.5816,-2.74228 -4.51669,-3.87144 -5.80717,-10.32385 -2.9036,-13.87269 1.12919,-1.4518 3.06491,-2.25833 5.16195,-2.25833 2.74226,0.16129 5.64585,1.29048 8.0655,3.3875 z m -8.22681,40.32759 c 21.29297,0 44.36035,7.25897 69.84738,30.00374 2.58096,2.25833 5.96848,-0.48393 3.71013,-3.38752 -25.1644,-31.77815 -48.3931,-37.74663 -71.46048,-42.90856 -28.39062,-6.29109 -42.90855,-22.26082 -53.07111,-39.68235 -2.09704,-3.54884 -2.9036,-2.90357 -3.06489,1.61311 -0.16132,5.48454 0.16129,12.74351 1.45178,19.84118 v 0 c -1.12917,0 -2.25834,0 -3.3875,0 -40.48891,0 -73.396225,-32.90733 -73.396225,-73.39622 0,-40.488896 32.907315,-73.396208 73.396225,-73.396208 40.48888,0 73.39619,32.907312 73.39619,73.396208 0,2.90358 -0.16129,5.80717 -0.48392,8.54945 -5.32325,-0.96787 -15.96973,-1.12917 -23.38999,-0.48392 -2.74228,0.16129 -2.41967,1.61309 -0.32263,1.93572 24.19654,4.35537 40.97283,19.35723 44.68296,46.78 0.16131,0.64524 0.96787,0.80656 1.29048,0.32261 10.00124,-16.61497 15.64712,-36.13352 15.64712,-56.94254 0,-61.297942 -49.6836,-110.9815311 -110.98153,-110.9815311 -61.297939,0 -110.981528,49.6835891 -110.981528,110.9815311 0,61.29793 49.683589,110.9815 110.981528,110.9815 16.29234,0 32.42339,-3.2262 56.13601,-3.2262 z"
   id="path2670"
   style="fill:#9dbcff;fill-opacity:1;stroke-width:1.61311" />
</svg>
