<?xml version="1.0" encoding="UTF-8" standalone="no"?>
<svg
   width="32"
   height="28"
   viewBox="0 0 32 28"
   fill="none"
   version="1.1"
   id="svg2"
   sodipodi:docname="radio.svg"
   inkscape:version="1.3.2 (091e20e, 2023-11-25, custom)"
   xmlns:inkscape="http://www.inkscape.org/namespaces/inkscape"
   xmlns:sodipodi="http://sodipodi.sourceforge.net/DTD/sodipodi-0.dtd"
   xmlns="http://www.w3.org/2000/svg"
   xmlns:svg="http://www.w3.org/2000/svg">
  <sodipodi:namedview
     id="namedview2"
     pagecolor="#ffffff"
     bordercolor="#000000"
     borderopacity="0.25"
     inkscape:showpageshadow="2"
     inkscape:pageopacity="0.0"
     inkscape:pagecheckerboard="0"
     inkscape:deskcolor="#d1d1d1"
     inkscape:zoom="25.96875"
     inkscape:cx="15.980746"
     inkscape:cy="12.919374"
     inkscape:window-width="1920"
     inkscape:window-height="1027"
     inkscape:window-x="-8"
     inkscape:window-y="-8"
     inkscape:window-maximized="1"
     inkscape:current-layer="svg2" />
  <path
     fill-rule="evenodd"
     clip-rule="evenodd"
     d="m 21.038508,23.074609 c -3.313,0 -6,-2.686 -6,-6 0,-3.313 2.687,-6 6,-6 3.313,0 6,2.687 6,6 0,3.314 -2.687,6 -6,6 z m -10,-9 H 5.0385079 c -0.553,0 -1,-0.447 -1,-1 0,-0.553 0.447,-1 1,-1 h 6.0000001 c 0.553,0 1,0.447 1,1 0,0.553 -0.447,1 -1,1 z m 0,4 H 5.0385079 c -0.553,0 -1,-0.447 -1,-1 0,-0.553 0.447,-1 1,-1 h 6.0000001 c 0.553,0 1,0.447 1,1 0,0.553 -0.447,1 -1,1 z m 0,4 H 5.0385079 c -0.553,0 -1,-0.447 -1,-1 0,-0.552 0.447,-1 1,-1 h 6.0000001 c 0.553,0 1,0.448 1,1 0,0.553 -0.447,1 -1,1 z m 17,-16.0000401 h -2.1 l -10.534,-5.88000003 c -0.478,-0.26599997 -1.09,-0.10701 -1.366,0.35199 -0.276,0.45900003 -0.112,1.04603003 0.366,1.31103003 l 7.609,4.21698 H 4.0385079 c -2.209,0 -4.00000008,1.791 -4.00000008,4.0000401 v 14 c 0,2.209 1.79100008,4 4.00000008,4 H 28.038508 c 2.209,0 4,-1.791 4,-4 v -14 c 0,-2.2090401 -1.791,-4.0000401 -4,-4.0000401 z m -7,7.0000401 c -2.209,0 -4,1.791 -4,4 0,2.209 1.791,4 4,4 2.209,0 4,-1.791 4,-4 0,-2.209 -1.791,-4 -4,-4 z"
     fill="url(#paint0_linear_57_2)"
     id="path1"
     style="fill:url(#paint0_linear_57_2)" />
  <defs
     id="defs2">
    <linearGradient
       id="paint0_linear_57_2"
       x1="16"
       y1="1.99097"
       x2="16"
       y2="30"
       gradientUnits="userSpaceOnUse"
       gradientTransform="translate(0.03850782,-1.9253911)">
      <stop
         stop-color="#3B9B6E"
         id="stop1" />
      <stop
         offset="1"
         stop-color="#417B5F"
         id="stop2" />
    </linearGradient>
  </defs>
</svg>
