<svg width="32" height="37" viewBox="0 0 32 37" fill="none" xmlns="http://www.w3.org/2000/svg">
<path d="M16 18.2857C18.4248 18.2857 20.7504 17.3225 22.465 15.6078C24.1796 13.8932 25.1429 11.5677 25.1429 9.14286C25.1429 6.71802 24.1796 4.3925 22.465 2.67788C20.7504 0.963263 18.4248 0 16 0C13.5752 0 11.2496 0.963263 9.53502 2.67788C7.82041 4.3925 6.85714 6.71802 6.85714 9.14286C6.85714 11.5677 7.82041 13.8932 9.53502 15.6078C11.2496 17.3225 13.5752 18.2857 16 18.2857ZM12.7357 21.7143C5.7 21.7143 0 27.4143 0 34.45C0 35.6214 0.95 36.5714 2.12143 36.5714H29.8786C31.05 36.5714 32 35.6214 32 34.45C32 27.4143 26.3 21.7143 19.2643 21.7143H12.7357Z" fill="white"/>
</svg>
