<?xml version="1.0" encoding="UTF-8" standalone="no"?>
<!-- Created with Inkscape (http://www.inkscape.org/) -->

<svg
   width="72.602844mm"
   height="101.27284mm"
   viewBox="0 0 72.602844 101.27284"
   version="1.1"
   id="svg936"
   inkscape:version="1.1.2 (b8e25be833, 2022-02-05)"
   sodipodi:docname="V2.svg"
   xmlns:inkscape="http://www.inkscape.org/namespaces/inkscape"
   xmlns:sodipodi="http://sodipodi.sourceforge.net/DTD/sodipodi-0.dtd"
   xmlns="http://www.w3.org/2000/svg"
   xmlns:svg="http://www.w3.org/2000/svg">
  <sodipodi:namedview
     id="namedview938"
     pagecolor="#ffffff"
     bordercolor="#999999"
     borderopacity="1"
     inkscape:pageshadow="0"
     inkscape:pageopacity="0"
     inkscape:pagecheckerboard="0"
     inkscape:document-units="mm"
     showgrid="false"
     inkscape:zoom="0.60221134"
     inkscape:cx="190.96286"
     inkscape:cy="130.35291"
     inkscape:window-width="1291"
     inkscape:window-height="694"
     inkscape:window-x="5"
     inkscape:window-y="24"
     inkscape:window-maximized="0"
     inkscape:current-layer="layer1"
     fit-margin-top="0"
     fit-margin-left="0"
     fit-margin-right="0"
     fit-margin-bottom="0" />
  <defs
     id="defs933" />
  <g
     inkscape:label="Слой 1"
     inkscape:groupmode="layer"
     id="layer1"
     transform="translate(-78.098854,-7.9392484)">
    <path
       style="fill:#ffa600;fill-opacity:1;stroke:none;stroke-width:0.0302605"
       d="m 98.229278,20.887382 v 0.06052 c -0.510163,0.213515 -0.959287,0.639947 -1.308615,1.059115 -1.976431,2.371515 -0.882847,6.098308 2.034865,7.070882 0.545237,0.181742 1.276122,0.327294 1.845892,0.191638 -0.15212,0.737418 -0.1884,1.441311 -0.003,2.178756 0.0886,0.352747 0.30076,0.674082 0.36376,1.028857 0.26499,1.492055 0.37566,3.058124 0.2722,4.569335 -0.42277,6.173141 -3.485924,11.653927 -7.567551,16.189367 -3.471603,3.85761 -7.521909,7.04162 -11.735962,10.04225 -0.731994,0.52109 -1.486846,1.01554 -2.239273,1.50697 -0.456398,0.29777 -0.977017,0.56255 -1.308437,1.00889 -0.414373,0.558 -0.520603,1.31996 -0.474221,1.99719 0.07357,1.07425 0.451163,2.11551 0.895768,3.08657 1.016615,2.22022 2.590558,4.31243 4.48789,5.85208 0.996328,0.80826 2.422292,1.77689 3.782563,1.64738 0.348902,-0.0333 0.716721,-0.0853 1.028856,-0.25661 0.292167,-0.16038 0.546537,-0.4757 0.786772,-0.70537 0.375412,-0.35889 0.764684,-0.70689 1.1499,-1.05519 1.859475,-1.68187 3.761019,-3.31655 5.719234,-4.88313 3.224163,-2.5794 6.650651,-4.96091 10.349091,-6.81012 3.01909,-1.5094 6.24516,-2.66021 9.62284,-2.98309 2.2081,-0.21091 4.4961,-0.056 6.62704,0.59946 0.47994,0.14737 0.95351,0.29747 1.42225,0.47903 0.14797,0.0572 0.42092,0.11287 0.52532,0.23724 0.0808,0.0962 0.0188,0.37221 0.0194,0.49476 0.002,0.37009 0.0581,0.75893 0.14071,1.11964 0.24904,1.08726 0.84911,2.13457 1.70517,2.85689 0.76166,0.64243 1.65193,1.0688 2.63267,1.24583 0.3719,0.0669 0.7429,0.0738 1.11964,0.0732 0.12043,-3.5e-4 0.34134,-0.0669 0.43847,0.0184 0.0974,0.0856 0.11469,0.28748 0.15766,0.40519 0.0938,0.25872 0.21485,0.51987 0.35556,0.75651 0.48114,0.80856 1.19287,1.41649 2.0441,1.80625 0.99829,0.45723 2.20447,0.49294 3.23788,0.13466 0.34133,-0.11832 0.66573,-0.27114 0.96833,-0.46844 0.10137,-0.0663 0.29655,-0.26326 0.42365,-0.24329 0.13254,0.0206 0.28989,0.21939 0.39338,0.302 0.25268,0.20184 0.52744,0.3825 0.81704,0.52744 1.11207,0.55649 2.40268,0.69115 3.601,0.34921 2.16453,-0.61762 3.75139,-2.80031 3.53533,-5.07075 -0.0575,-0.60521 -0.2088,-1.16685 -0.44876,-1.72485 -0.0614,-0.14253 -0.34225,-0.47933 -0.27235,-0.63003 0.0494,-0.10651 0.21213,-0.17672 0.30261,-0.2445 0.19699,-0.14737 0.37129,-0.3135 0.54469,-0.48719 0.4878,-0.48841 0.86303,-1.07939 1.10663,-1.72485 0.17853,-0.47237 0.3029,-0.97681 0.31591,-1.48277 0.004,-0.14343 -0.0475,-0.60914 0.0481,-0.70386 0.0805,-0.0793 0.26902,-0.0829 0.37523,-0.10923 0.23997,-0.0602 0.47327,-0.14525 0.69599,-0.25389 0.755,-0.36797 1.36385,-1.03159 1.68097,-1.80777 0.64243,-1.57354 0.0454,-3.49448 -1.43889,-4.36174 -0.69901,-0.40822 -1.39228,-0.48659 -2.17875,-0.47993 0.37886,-1.34539 0.15312,-2.84358 -0.65332,-3.99439 -0.2321,-0.33105 -0.52442,-0.74834 -0.88997,-0.93808 0.48569,-0.68933 1.00254,-1.18893 1.18017,-2.05771 0.45148,-2.21113 -1.18803,-4.567821 -3.54048,-4.569336 -0.14374,-0.959562 -0.8715,-1.734837 -1.33147,-2.541879 0.68208,-0.258425 1.2304,-1.033581 1.53542,-1.664328 0.0996,-0.205863 0.15857,-0.718809 0.32742,-0.856466 0.0875,-0.07105 0.27779,0.01472 0.37644,0.03187 0.29172,0.05074 0.61247,0.06128 0.90782,0.03268 0.81067,-0.07846 1.55932,-0.521202 2.06921,-1.14475 0.99436,-1.215145 0.84911,-3.036764 -0.23603,-4.137036 -0.23301,-0.236185 -0.50838,-0.428098 -0.80433,-0.576098 -0.12316,-0.06164 -0.37674,-0.103371 -0.46268,-0.210312 -0.0672,-0.08328 0.0266,-0.253372 0.0518,-0.341881 0.0808,-0.285447 0.11711,-0.582003 0.13224,-0.877556 0.0357,-0.693663 -0.25721,-1.45798 -0.67965,-1.997193 -0.42395,-0.541451 -1.011,-0.933445 -1.67431,-1.115041 -0.25419,-0.06954 -0.71657,-0.01974 -0.929,-0.156747 -0.13254,-0.08552 -0.17339,-0.402618 -0.23392,-0.54384 -0.14736,-0.344761 -0.35404,-0.656686 -0.60097,-0.938078 -0.25661,-0.292679 -0.58735,-0.532704 -0.9293,-0.716899 -0.1516,-0.08168 -0.44755,-0.129396 -0.55407,-0.266536 -0.12043,-0.155598 -0.005,-0.630995 -0.0339,-0.832193 -0.0799,-0.558821 -0.2911,-1.110291 -0.6618,-1.543286 -0.33558,-0.392086 -0.77406,-0.708336 -1.26186,-0.881671 -0.16582,-0.05891 -0.69447,-0.08539 -0.76861,-0.244867 -0.14889,-0.319675 -0.10319,-0.820875 -0.19609,-1.173261 -0.21727,-0.822115 -0.69539,-1.637122 -1.3351,-2.200359 -0.72837,-0.641225 -1.60532,-1.08027 -2.57214,-1.210545 -0.325,-0.04379 -0.67088,-0.06485 -0.9986,-0.03365 -0.12194,0.01159 -0.36161,0.09084 -0.47115,0.02308 -0.10894,-0.0673 -0.12619,-0.308355 -0.16432,-0.421622 -0.10651,-0.315678 -0.24995,-0.624789 -0.42546,-0.907815 -0.53591,-0.863239 -1.3593,-1.542315 -2.32824,-1.865408 -1.80353,-0.601395 -3.83612,0.0075 -4.98148,1.532543 -0.34921,0.464774 -0.61399,1.006225 -0.74835,1.57355 -0.0466,0.198055 -0.0859,0.402494 -0.1053,0.605208 -0.008,0.08585 0.0167,0.217603 -0.0535,0.283144 -0.072,0.06706 -0.22575,0.02065 -0.31471,0.01958 -0.26448,-0.0032 -0.52442,-0.0032 -0.78678,0.03014 -0.14101,-1.772844 -1.70911,-3.350259 -3.32865,-3.88333 -0.45663,-0.150276 -0.91901,-0.197904 -1.39198,-0.253733 -0.12105,-0.01429 -0.40308,0.04983 -0.49567,-0.03203 -0.0766,-0.06766 -0.0475,-0.360582 -0.049,-0.460777 -0.004,-0.347694 -0.082,-0.69823 -0.18731,-1.028857 -0.29694,-0.9309657 -0.92727,-1.7169927 -1.74945,-2.2375957 -1.0694,-0.677307 -2.41115,-0.801704 -3.601,-0.394901 -0.30956,0.105884 -0.60127,0.256068 -0.87755,0.43046 -0.10864,0.06862 -0.25721,0.234244 -0.39339,0.228636 -0.15372,-0.0063 -0.35313,-0.20033 -0.48416,-0.277806 -0.29474,-0.17444 -0.61277,-0.297263 -0.93808,-0.401232 -1.29367,-0.413317 -2.78421,-0.237221 -3.93386,0.494794 -0.50865,0.323859 -0.96567,0.728121 -1.31851,1.219636 -0.13814,0.1924307 -0.33054,0.7422937 -0.53419,0.8413177 -0.10497,0.05107 -0.27594,-0.0117 -0.38658,-0.022 -0.32034,-0.02982 -0.64597,-0.05188 -0.96834,-0.02982 -0.89062,0.06097 -1.776074,0.327801 -2.541874,0.790245 -2.600043,1.570065 -3.470638,4.990774 -1.975438,7.619474 0.37133,0.652808 0.987916,1.513297 1.70309,1.815628 z"
       id="path2479" />
    <text
       xml:space="preserve"
       style="font-style:normal;font-weight:normal;font-size:25.4px;line-height:1.25;font-family:sans-serif;fill:#000000;fill-opacity:1;stroke:none;stroke-width:0.264583"
       x="113.6959"
       y="105.88406"
       id="text4187"><tspan
         sodipodi:role="line"
         id="tspan4185"
         style="font-style:normal;font-variant:normal;font-weight:bold;font-stretch:normal;font-size:25.4px;font-family:Inter;-inkscape-font-specification:'Inter Bold';text-align:center;text-anchor:middle;fill:#ffa600;fill-opacity:1;stroke-width:0.264583"
         x="113.6959"
         y="105.88406"
         rotate="0 0 0">V2</tspan></text>
    <text
       xml:space="preserve"
       style="font-style:normal;font-weight:normal;font-size:16.9333px;line-height:1.25;font-family:sans-serif;fill:#000000;fill-opacity:1;stroke:none;stroke-width:0.264583"
       x="100.17247"
       y="85.67382"
       id="text9608"><tspan
         sodipodi:role="line"
         id="tspan9606"
         style="font-style:normal;font-variant:normal;font-weight:bold;font-stretch:normal;font-size:16.9333px;font-family:Inter;-inkscape-font-specification:'Inter Bold';fill:#ffa600;fill-opacity:1;stroke-width:0.264583"
         x="100.17247"
         y="85.67382"
         rotate="0" /></text>
  </g>
</svg>
