<?xml version="1.0" encoding="UTF-8" standalone="no"?>
<!-- Created with Inkscape (http://www.inkscape.org/) -->

<svg
   width="196mm"
   height="170mm"
   viewBox="0 0 196 170"
   version="1.1"
   id="svg8544"
   xml:space="preserve"
   inkscape:version="1.3.2 (091e20e, 2023-11-25, custom)"
   sodipodi:docname="vepurovk.svg"
   xmlns:inkscape="http://www.inkscape.org/namespaces/inkscape"
   xmlns:sodipodi="http://sodipodi.sourceforge.net/DTD/sodipodi-0.dtd"
   xmlns="http://www.w3.org/2000/svg"
   xmlns:svg="http://www.w3.org/2000/svg"><sodipodi:namedview
     id="namedview8546"
     pagecolor="#ffffff"
     bordercolor="#000000"
     borderopacity="0.25"
     inkscape:showpageshadow="2"
     inkscape:pageopacity="0.0"
     inkscape:pagecheckerboard="0"
     inkscape:deskcolor="#d1d1d1"
     inkscape:document-units="mm"
     showgrid="false"
     inkscape:zoom="0.74564394"
     inkscape:cx="360.09144"
     inkscape:cy="346.68021"
     inkscape:window-width="1920"
     inkscape:window-height="1027"
     inkscape:window-x="-8"
     inkscape:window-y="-8"
     inkscape:window-maximized="1"
     inkscape:current-layer="layer1" /><defs
     id="defs8541" /><g
     inkscape:label="Слой 1"
     inkscape:groupmode="layer"
     id="layer1"><path
       style="fill:#69C89B;stroke-width:0.223173;fill-opacity:1"
       d="M 56.738253,154.08439 C 50.743547,153.28561 44.554381,151.10742 39.410511,147.98613 30.606893,142.6441 24.723718,134.80488 22.120774,124.94785 l -0.667141,-2.52638 V 82.68641 42.951356 l 0.667141,-2.52638 c 0.87635,-3.318629 1.784682,-5.641269 3.332406,-8.521091 5.526707,-10.283443 15.531218,-17.364822 28.45223,-20.139014 l 2.801804,-0.601558 h 44.066976 44.06699 l 2.8018,0.601558 c 12.921,2.774192 22.92552,9.855571 28.45223,20.139014 1.54772,2.879822 2.45605,5.202462 3.3324,8.521091 l 0.66714,2.52638 v 39.735054 39.73506 l -0.66714,2.52638 c -3.89521,14.75069 -15.22156,25.00038 -31.66305,28.65323 l -2.68837,0.59729 -43.47941,0.0349 c -23.913681,0.0192 -44.100021,-0.0478 -44.858527,-0.14887 z m 66.537587,-16.24572 c 8.13181,-15.59389 14.58108,-48.7815 19.6924,-101.336188 0.5057,-5.199587 0.67281,-6.28094 1.00474,-6.501414 0.3424,-0.227436 0.34879,-0.280987 0.0456,-0.382518 -1.44651,-0.484418 -36.80239,-5.670264 -37.22941,-5.460649 -0.25522,0.125285 -0.0163,14.792911 0.36304,22.29014 0.75503,14.920959 -1.27513,32.533559 -5.94811,51.602589 -1.433856,5.85115 -1.425156,5.82781 -2.172896,5.82781 -0.31873,0 -0.63495,-0.0809 -0.70273,-0.17977 -0.30838,-0.44992 -4.875842,-19.63344 -6.693172,-28.11159 -3.936247,-18.36326 -5.76278,-29.626801 -6.372821,-39.298788 -0.135574,-2.149455 -0.276038,-3.934735 -0.312146,-3.96729 -0.03611,-0.03256 -2.016503,0.638389 -4.400893,1.490986 -10.359464,3.704297 -17.877338,5.808293 -24.312275,6.804174 l -3.05531,0.472845 0.03384,2.644956 c 0.195773,15.288157 9.089109,45.901527 24.978478,85.982967 1.821697,4.59528 3.364564,8.4023 3.428607,8.46004 0.06402,0.0577 1.67595,-0.008 3.582042,-0.14527 4.22225,-0.30488 14.887016,-0.32034 18.742156,-0.0272 3.86578,0.29399 9.80256,0.974 13.68646,1.56768 4.83568,0.73917 4.26081,0.91579 5.64237,-1.73355 z"
       id="path14485" /></g></svg>
