<svg width="32" height="37" viewBox="0 0 32 37" fill="none" xmlns="http://www.w3.org/2000/svg">
<g id="vk 1">
<path id="path2" d="M2.24934 4.5882C0 6.86388 0 10.527 0 17.8525V19.1475C0 26.473 0 30.1361 2.24934 32.4118C4.49866 34.6875 8.11936 34.6875 15.36 34.6875H16.64C23.8806 34.6875 27.5014 34.6875 29.7506 32.4118C32 30.1361 32 26.473 32 19.1475V17.8525C32 10.527 32 6.86388 29.7506 4.5882C27.5014 2.3125 23.8806 2.3125 16.64 2.3125H15.36C8.11936 2.3125 4.49866 2.3125 2.24934 4.5882ZM5.4 12.1599H9.05336C9.17336 18.3381 11.8666 20.9551 14 21.4947V12.1599H17.44V17.4883C19.5466 17.259 21.76 14.8309 22.5066 12.1599H25.9466C25.6652 13.5451 25.1043 14.8566 24.299 16.0125C23.4938 17.1684 22.4615 18.1438 21.2666 18.8777C22.6007 19.5478 23.7791 20.4967 24.7237 21.6617C25.6684 22.8268 26.3579 24.1814 26.7466 25.636H22.96C22.6111 24.3724 21.901 23.2413 20.9189 22.3846C19.9369 21.5279 18.7266 20.9836 17.44 20.8202V25.636H17.0266C9.73336 25.636 5.57334 20.5774 5.4 12.1599Z" fill="url(#paint0_linear_18_43)"/>
</g>
<defs>
<linearGradient id="paint0_linear_18_43" x1="16" y1="2.3125" x2="16" y2="34.6875" gradientUnits="userSpaceOnUse">
<stop stop-color="#3B9B6E"/>
<stop offset="0.0001" stop-color="#3B9B6D"/>
<stop offset="1" stop-color="#417B5F"/>
</linearGradient>
</defs>
</svg>
